ISO-10303-21;
HEADER;
FILE_DESCRIPTION (( 'STEP AP203' ),
    '1' );
FILE_NAME ('µç»ú¹Ì¶¨2.STEP',
    '2026-06-11T07:12:42',
    ( '' ),
    ( '' ),
    'SwSTEP 2.0',
    'SolidWorks 2025',
    '' );
FILE_SCHEMA (( 'CONFIG_CONTROL_DESIGN' ));
ENDSEC;

DATA;
#1 = CARTESIAN_POINT ( 'NONE',  ( 100.0000000000000000, 20.00000000000000000, 2.000000000000000000 ) ) ;
#2 = LINE ( 'NONE', #717, #718 ) ;
#3 = LINE ( 'NONE', #167, #1098 ) ;
#4 = ORIENTED_EDGE ( 'NONE', *, *, #41, .F. ) ;
#5 = EDGE_CURVE ( 'NONE', #54, #188, #404, .T. ) ;
#6 = DIRECTION ( 'NONE',  ( 1.000000000000000000, 0.000000000000000000, 0.000000000000000000 ) ) ;
#7 = CARTESIAN_POINT ( 'NONE',  ( -6.250000000000052403, -10.82531754730545792, 3.000000000000000000 ) ) ;
#8 = VECTOR ( 'NONE', #1074, 1000.000000000000114 ) ;
#9 = FACE_OUTER_BOUND ( 'NONE', #540, .T. ) ;
#10 = EDGE_LOOP ( 'NONE', ( #495, #276, #530, #395, #366, #337 ) ) ;
#11 = CYLINDRICAL_SURFACE ( 'NONE', #584, 1.650000000000000355 ) ;
#12 = ADVANCED_FACE ( 'NONE', ( #242 ), #603, .T. ) ;
#13 = AXIS2_PLACEMENT_3D ( 'NONE', #768, #578, #847 ) ;
#14 = DIRECTION ( 'NONE',  ( 0.000000000000000000, 0.000000000000000000, -1.000000000000000000 ) ) ;
#15 = LINE ( 'NONE', #813, #142 ) ;
#16 = VERTEX_POINT ( 'NONE', #350 ) ;
#17 = CARTESIAN_POINT ( 'NONE',  ( -9.175317547305409605, 6.250000000000127010, 0.000000000000000000 ) ) ;
#18 = CARTESIAN_POINT ( 'NONE',  ( -10.82531754730540996, 6.250000000000127010, 0.000000000000000000 ) ) ;
#19 = DIRECTION ( 'NONE',  ( 1.000000000000000000, 0.000000000000000000, 0.000000000000000000 ) ) ;
#20 = AXIS2_PLACEMENT_3D ( 'NONE', #525, #658, #654 ) ;
#21 = VECTOR ( 'NONE', #701, 1000.000000000000000 ) ;
#22 = ORIENTED_EDGE ( 'NONE', *, *, #745, .F. ) ;
#23 = CARTESIAN_POINT ( 'NONE',  ( 1.256317323729507329, -24.96841338135238431, 2.000000000000000000 ) ) ;
#24 = LINE ( 'NONE', #186, #248 ) ;
#25 = CARTESIAN_POINT ( 'NONE',  ( -10.82531754730554496, -6.249999999999900524, 3.000000000000000000 ) ) ;
#26 =( GEOMETRIC_REPRESENTATION_CONTEXT ( 3 ) GLOBAL_UNCERTAINTY_ASSIGNED_CONTEXT ( ( #946 ) ) GLOBAL_UNIT_ASSIGNED_CONTEXT ( ( #408, #323, #1122 ) ) REPRESENTATION_CONTEXT ( 'NONE', 'WORKASPACE' ) );
#27 = ORIENTED_EDGE ( 'NONE', *, *, #322, .F. ) ;
#28 = DIRECTION ( 'NONE',  ( 0.000000000000000000, 0.000000000000000000, 1.000000000000000000 ) ) ;
#29 = CIRCLE ( 'NONE', #125, 2.099999999999999645 ) ;
#30 = AXIS2_PLACEMENT_3D ( 'NONE', #343, #454, #353 ) ;
#31 = CARTESIAN_POINT ( 'NONE',  ( -12.47531754730541032, 6.250000000000127010, 3.000000000000000000 ) ) ;
#32 = CC_DESIGN_PERSON_AND_ORGANIZATION_ASSIGNMENT ( #1111, #224, ( #983 ) ) ;
#33 = CARTESIAN_POINT ( 'NONE',  ( 100.0000000000000000, 0.000000000000000000, 3.000000000000000000 ) ) ;
#34 = EDGE_CURVE ( 'NONE', #61, #44, #356, .T. ) ;
#35 = ORIENTED_EDGE ( 'NONE', *, *, #359, .F. ) ;
#36 = PLANE ( 'NONE',  #644 ) ;
#37 = DIRECTION ( 'NONE',  ( 1.000000000000000000, 0.000000000000000000, 0.000000000000000000 ) ) ;
#38 = DIRECTION ( 'NONE',  ( 1.000000000000000000, 0.000000000000000000, 0.000000000000000000 ) ) ;
#39 = ORIENTED_EDGE ( 'NONE', *, *, #769, .F. ) ;
#40 = CYLINDRICAL_SURFACE ( 'NONE', #77, 20.00000000000000355 ) ;
#41 = EDGE_CURVE ( 'NONE', #697, #44, #3, .T. ) ;
#42 = DIRECTION ( 'NONE',  ( 0.000000000000000000, 0.000000000000000000, -1.000000000000000000 ) ) ;
#43 = CARTESIAN_POINT ( 'NONE',  ( 10.82531754730545792, -6.250000000000052403, 3.000000000000000000 ) ) ;
#44 = VERTEX_POINT ( 'NONE', #92 ) ;
#45 = APPROVAL_STATUS ( 'not_yet_approved' ) ;
#46 = EDGE_LOOP ( 'NONE', ( #1063, #520, #778, #808 ) ) ;
#47 = EDGE_CURVE ( 'NONE', #857, #347, #292, .T. ) ;
#48 = CLOSED_SHELL ( 'NONE', ( #966, #800, #1156, #368, #312, #1086, #943, #723, #601, #776, #563, #1035, #587, #112, #168, #1068, #12, #443, #1129, #989, #135, #512, #129, #246, #1115, #620, #58, #1080, #812, #405, #639, #788 ) ) ;
#49 = CARTESIAN_POINT ( 'NONE',  ( 0.000000000000000000, 12.50000000000000000, 0.000000000000000000 ) ) ;
#50 = ORIENTED_EDGE ( 'NONE', *, *, #282, .F. ) ;
#51 = CYLINDRICAL_SURFACE ( 'NONE', #461, 2.100000000000000977 ) ;
#52 = EDGE_LOOP ( 'NONE', ( #894, #141 ) ) ;
#53 = DIRECTION ( 'NONE',  ( 0.000000000000000000, 0.000000000000000000, 1.000000000000000000 ) ) ;
#54 = VERTEX_POINT ( 'NONE', #256 ) ;
#55 = APPROVAL_DATE_TIME ( #1029, #355 ) ;
#56 = ORIENTED_EDGE ( 'NONE', *, *, #1149, .F. ) ;
#57 = CARTESIAN_POINT ( 'NONE',  ( -6.249999999999900524, 10.82531754730554496, 0.000000000000000000 ) ) ;
#58 = ADVANCED_FACE ( 'NONE', ( #523 ), #626, .T. ) ;
#59 = ORIENTED_EDGE ( 'NONE', *, *, #869, .T. ) ;
#60 = CARTESIAN_POINT ( 'NONE',  ( -1.650000000000000133, 12.50000000000000000, 3.000000000000000000 ) ) ;
#61 = VERTEX_POINT ( 'NONE', #156 ) ;
#62 = DIRECTION ( 'NONE',  ( -0.000000000000000000, -0.000000000000000000, -1.000000000000000000 ) ) ;
#63 = DIRECTION ( 'NONE',  ( 0.9987365352540955588, -0.05025269294918074947, 0.000000000000000000 ) ) ;
#64 = AXIS2_PLACEMENT_3D ( 'NONE', #491, #1126, #392 ) ;
#65 = VECTOR ( 'NONE', #263, 1000.000000000000000 ) ;
#66 = DIRECTION ( 'NONE',  ( -0.000000000000000000, -0.000000000000000000, 1.000000000000000000 ) ) ;
#67 = DATE_AND_TIME ( #331, #945 ) ;
#68 = VECTOR ( 'NONE', #205, 1000.000000000000000 ) ;
#69 = ORIENTED_EDGE ( 'NONE', *, *, #1000, .F. ) ;
#70 = FACE_OUTER_BOUND ( 'NONE', #921, .T. ) ;
#71 = CARTESIAN_POINT ( 'NONE',  ( -10.82531754730540996, 6.250000000000127010, 0.000000000000000000 ) ) ;
#72 = ORIENTED_EDGE ( 'NONE', *, *, #1101, .F. ) ;
#73 = SECURITY_CLASSIFICATION_LEVEL ( 'unclassified' ) ;
#74 = ORIENTED_EDGE ( 'NONE', *, *, #1007, .F. ) ;
#75 = CARTESIAN_POINT ( 'NONE',  ( 9.175317547305457566, -6.250000000000052403, 0.000000000000000000 ) ) ;
#76 = EDGE_CURVE ( 'NONE', #227, #1136, #513, .T. ) ;
#77 = AXIS2_PLACEMENT_3D ( 'NONE', #372, #917, #1011 ) ;
#78 = VECTOR ( 'NONE', #696, 1000.000000000000000 ) ;
#79 = FACE_OUTER_BOUND ( 'NONE', #652, .T. ) ;
#80 = CARTESIAN_POINT ( 'NONE',  ( -10.82531754730540996, 6.250000000000127010, 3.000000000000000000 ) ) ;
#81 = ADVANCED_BREP_SHAPE_REPRESENTATION ( '\X2\7535673a56fa5b9a\X0\2', ( #961, #401 ), #26 ) ;
#82 = ORIENTED_EDGE ( 'NONE', *, *, #821, .T. ) ;
#83 = CARTESIAN_POINT ( 'NONE',  ( 100.0000000000000000, 0.000000000000000000, 2.000000000000000000 ) ) ;
#84 = EDGE_CURVE ( 'NONE', #266, #1090, #198, .T. ) ;
#85 = DIRECTION ( 'NONE',  ( 1.000000000000000000, 0.000000000000000000, 0.000000000000000000 ) ) ;
#86 = ORIENTED_EDGE ( 'NONE', *, *, #1027, .F. ) ;
#87 = AXIS2_PLACEMENT_3D ( 'NONE', #391, #42, #216 ) ;
#88 = EDGE_LOOP ( 'NONE', ( #704, #681 ) ) ;
#89 = DIRECTION ( 'NONE',  ( 1.000000000000000000, 0.000000000000000000, 0.000000000000000000 ) ) ;
#90 = CARTESIAN_POINT ( 'NONE',  ( -4.150000000000050981, -10.82531754730545792, 0.000000000000000000 ) ) ;
#91 = EDGE_CURVE ( 'NONE', #16, #878, #1152, .T. ) ;
#92 = CARTESIAN_POINT ( 'NONE',  ( 99.92763441975104399, 16.99984597644329654, 0.000000000000000000 ) ) ;
#93 = COORDINATED_UNIVERSAL_TIME_OFFSET ( 8, 0, .AHEAD. ) ;
#94 = ORIENTED_EDGE ( 'NONE', *, *, #240, .T. ) ;
#95 = DIRECTION ( 'NONE',  ( -0.000000000000000000, -0.000000000000000000, -1.000000000000000000 ) ) ;
#96 = CARTESIAN_POINT ( 'NONE',  ( 1.649999999999912870, -12.50000000000000000, 3.000000000000000000 ) ) ;
#97 = CARTESIAN_POINT ( 'NONE',  ( 12.50000000000000000, 0.000000000000000000, 3.000000000000000000 ) ) ;
#98 = EDGE_CURVE ( 'NONE', #403, #16, #15, .T. ) ;
#99 = ORIENTED_EDGE ( 'NONE', *, *, #34, .F. ) ;
#100 = CARTESIAN_POINT ( 'NONE',  ( 12.47531754730545828, -6.250000000000052403, 0.000000000000000000 ) ) ;
#101 = CIRCLE ( 'NONE', #457, 24.99999999999999289 ) ;
#102 = CARTESIAN_POINT ( 'NONE',  ( 12.47531754730545828, -6.250000000000052403, 3.000000000000000000 ) ) ;
#103 = AXIS2_PLACEMENT_3D ( 'NONE', #468, #823, #19 ) ;
#104 = DIRECTION ( 'NONE',  ( 0.9987365352540955588, -0.05025269294918081886, 0.000000000000000000 ) ) ;
#105 = CC_DESIGN_SECURITY_CLASSIFICATION ( #923, ( #983 ) ) ;
#106 = ORIENTED_EDGE ( 'NONE', *, *, #659, .T. ) ;
#107 = DIRECTION ( 'NONE',  ( -0.9987365352540955588, -0.05025269294918081886, 0.000000000000000000 ) ) ;
#108 = FACE_OUTER_BOUND ( 'NONE', #852, .T. ) ;
#109 = DIRECTION ( 'NONE',  ( 0.000000000000000000, 0.000000000000000000, 1.000000000000000000 ) ) ;
#110 = EDGE_LOOP ( 'NONE', ( #508, #138 ) ) ;
#111 = DIRECTION ( 'NONE',  ( -0.000000000000000000, -0.000000000000000000, -1.000000000000000000 ) ) ;
#112 = ADVANCED_FACE ( 'NONE', ( #9 ), #283, .F. ) ;
#113 = CARTESIAN_POINT ( 'NONE',  ( 9.175317547305498422, 6.249999999999975131, 3.000000000000000000 ) ) ;
#114 = CARTESIAN_POINT ( 'NONE',  ( -12.47531754730541032, 6.250000000000127010, 0.000000000000000000 ) ) ;
#115 = VECTOR ( 'NONE', #111, 1000.000000000000000 ) ;
#116 = VECTOR ( 'NONE', #612, 1000.000000000000000 ) ;
#117 = ORIENTED_EDGE ( 'NONE', *, *, #449, .T. ) ;
#118 = DIRECTION ( 'NONE',  ( 0.000000000000000000, 0.000000000000000000, 1.000000000000000000 ) ) ;
#119 = EDGE_CURVE ( 'NONE', #691, #1094, #553, .T. ) ;
#120 = DIRECTION ( 'NONE',  ( 0.9987365352540955588, -0.05025269294918075641, 0.000000000000000000 ) ) ;
#121 = DIRECTION ( 'NONE',  ( -0.000000000000000000, -0.000000000000000000, -1.000000000000000000 ) ) ;
#122 = APPROVAL_PERSON_ORGANIZATION ( #357, #742, #175 ) ;
#123 = ORIENTED_EDGE ( 'NONE', *, *, #334, .F. ) ;
#124 = FACE_OUTER_BOUND ( 'NONE', #330, .T. ) ;
#125 = AXIS2_PLACEMENT_3D ( 'NONE', #57, #299, #38 ) ;
#126 = VECTOR ( 'NONE', #798, 1000.000000000000000 ) ;
#127 = DIRECTION ( 'NONE',  ( 1.000000000000000000, 0.000000000000000000, 0.000000000000000000 ) ) ;
#128 = CARTESIAN_POINT ( 'NONE',  ( -24.99999999999999289, 0.000000000000000000, 3.000000000000000000 ) ) ;
#129 = ADVANCED_FACE ( 'NONE', ( #275 ), #560, .F. ) ;
#130 = ORIENTED_EDGE ( 'NONE', *, *, #84, .T. ) ;
#131 = DIRECTION ( 'NONE',  ( 0.000000000000000000, 0.000000000000000000, 1.000000000000000000 ) ) ;
#132 = DIRECTION ( 'NONE',  ( -1.000000000000000000, 0.000000000000000000, 0.000000000000000000 ) ) ;
#133 = DIRECTION ( 'NONE',  ( -0.000000000000000000, -0.000000000000000000, -1.000000000000000000 ) ) ;
#134 = ORIENTED_EDGE ( 'NONE', *, *, #952, .F. ) ;
#135 = ADVANCED_FACE ( 'NONE', ( #727 ), #915, .F. ) ;
#136 = APPLICATION_PROTOCOL_DEFINITION ( 'international standard', 'config_control_design', 1994, #145 ) ;
#137 = VECTOR ( 'NONE', #1137, 1000.000000000000000 ) ;
#138 = ORIENTED_EDGE ( 'NONE', *, *, #84, .F. ) ;
#139 = CARTESIAN_POINT ( 'NONE',  ( -9.175317547305546384, -6.249999999999900524, 3.000000000000000000 ) ) ;
#140 = ORIENTED_EDGE ( 'NONE', *, *, #838, .F. ) ;
#141 = ORIENTED_EDGE ( 'NONE', *, *, #769, .T. ) ;
#142 = VECTOR ( 'NONE', #104, 1000.000000000000227 ) ;
#143 = DIRECTION ( 'NONE',  ( 1.000000000000000000, 0.000000000000000000, 0.000000000000000000 ) ) ;
#144 = EDGE_LOOP ( 'NONE', ( #1139, #310, #1130, #74 ) ) ;
#145 = APPLICATION_CONTEXT ( 'configuration controlled 3d designs of mechanical parts and assemblies' ) ;
#146 = ORIENTED_EDGE ( 'NONE', *, *, #339, .F. ) ;
#147 = EDGE_CURVE ( 'NONE', #497, #592, #1055, .T. ) ;
#148 = CARTESIAN_POINT ( 'NONE',  ( -8.728703347107833388E-14, -12.50000000000000000, 3.000000000000000000 ) ) ;
#149 = ORIENTED_EDGE ( 'NONE', *, *, #700, .T. ) ;
#150 = DATE_TIME_ROLE ( 'creation_date' ) ;
#151 = ORIENTED_EDGE ( 'NONE', *, *, #163, .T. ) ;
#152 = LINE ( 'NONE', #787, #633 ) ;
#153 = EDGE_CURVE ( 'NONE', #1143, #504, #212, .T. ) ;
#154 = DIRECTION ( 'NONE',  ( -0.000000000000000000, -0.000000000000000000, -1.000000000000000000 ) ) ;
#155 = CIRCLE ( 'NONE', #606, 17.00000000000000000 ) ;
#156 = CARTESIAN_POINT ( 'NONE',  ( 99.92763441975104399, 16.99984597644329654, -3.000000000000000000 ) ) ;
#157 = LINE ( 'NONE', #849, #790 ) ;
#158 = ORIENTED_EDGE ( 'NONE', *, *, #1101, .T. ) ;
#159 = DIRECTION ( 'NONE',  ( 0.000000000000000000, 0.000000000000000000, -1.000000000000000000 ) ) ;
#160 = CC_DESIGN_APPROVAL ( #237, ( #983 ) ) ;
#161 = DIRECTION ( 'NONE',  ( -0.000000000000000000, -0.000000000000000000, -1.000000000000000000 ) ) ;
#162 = DIRECTION ( 'NONE',  ( 0.000000000000000000, 0.000000000000000000, -1.000000000000000000 ) ) ;
#163 = EDGE_CURVE ( 'NONE', #597, #488, #904, .T. ) ;
#164 = VERTEX_POINT ( 'NONE', #114 ) ;
#165 = FACE_OUTER_BOUND ( 'NONE', #1151, .T. ) ;
#166 = CARTESIAN_POINT ( 'NONE',  ( 14.60000000000000142, 2.571758278209442943E-16, 3.000000000000000000 ) ) ;
#167 = CARTESIAN_POINT ( 'NONE',  ( 1.105559244881976433, 21.97220377559009563, 0.000000000000000000 ) ) ;
#168 = ADVANCED_FACE ( 'NONE', ( #377, #1093, #549, #836, #903, #646, #650, #474, #195, #463 ), #555, .T. ) ;
#169 = VERTEX_POINT ( 'NONE', #830 ) ;
#170 = DIRECTION ( 'NONE',  ( 1.000000000000000000, 0.000000000000000000, 0.000000000000000000 ) ) ;
#171 = AXIS2_PLACEMENT_3D ( 'NONE', #285, #747, #489 ) ;
#172 = VECTOR ( 'NONE', #161, 1000.000000000000000 ) ;
#173 = DIRECTION ( 'NONE',  ( -0.000000000000000000, -0.000000000000000000, -1.000000000000000000 ) ) ;
#174 = ORIENTED_EDGE ( 'NONE', *, *, #671, .F. ) ;
#175 = APPROVAL_ROLE ( '' ) ;
#176 = ORIENTED_EDGE ( 'NONE', *, *, #98, .F. ) ;
#177 = LINE ( 'NONE', #730, #1079 ) ;
#178 = CARTESIAN_POINT ( 'NONE',  ( 0.000000000000000000, 12.50000000000000000, 3.000000000000000000 ) ) ;
#179 = ORIENTED_EDGE ( 'NONE', *, *, #807, .F. ) ;
#180 = CIRCLE ( 'NONE', #64, 2.100000000000000977 ) ;
#181 = AXIS2_PLACEMENT_3D ( 'NONE', #985, #879, #900 ) ;
#182 = CIRCLE ( 'NONE', #384, 2.100000000000000977 ) ;
#183 = ORIENTED_EDGE ( 'NONE', *, *, #231, .F. ) ;
#184 = DIRECTION ( 'NONE',  ( 1.000000000000000000, 0.000000000000000000, 0.000000000000000000 ) ) ;
#185 = EDGE_CURVE ( 'NONE', #1090, #266, #362, .T. ) ;
#186 = CARTESIAN_POINT ( 'NONE',  ( 1.649999999999912870, -12.50000000000000000, 3.000000000000000000 ) ) ;
#187 = CARTESIAN_POINT ( 'NONE',  ( 100.0000000000000000, 0.000000000000000000, 0.000000000000000000 ) ) ;
#188 = VERTEX_POINT ( 'NONE', #381 ) ;
#189 = DIRECTION ( 'NONE',  ( 1.000000000000000000, 0.000000000000000000, 0.000000000000000000 ) ) ;
#190 = CARTESIAN_POINT ( 'NONE',  ( 1.105559244881978653, 21.97220377559009563, 0.000000000000000000 ) ) ;
#191 = DIRECTION ( 'NONE',  ( 1.000000000000000000, 0.000000000000000000, 0.000000000000000000 ) ) ;
#192 = ORIENTED_EDGE ( 'NONE', *, *, #958, .F. ) ;
#193 = CARTESIAN_POINT ( 'NONE',  ( 100.0000000000000000, -20.00000000000000000, -3.000000000000000000 ) ) ;
#194 = CARTESIAN_POINT ( 'NONE',  ( 0.000000000000000000, 0.000000000000000000, -3.000000000000000000 ) ) ;
#195 = FACE_BOUND ( 'NONE', #110, .T. ) ;
#196 = ORIENTED_EDGE ( 'NONE', *, *, #1000, .T. ) ;
#197 = DIRECTION ( 'NONE',  ( -1.000000000000000000, 0.000000000000000000, 0.000000000000000000 ) ) ;
#198 = CIRCLE ( 'NONE', #345, 1.650000000000000355 ) ;
#199 = DIRECTION ( 'NONE',  ( -1.000000000000000000, 0.000000000000000000, 0.000000000000000000 ) ) ;
#200 = CARTESIAN_POINT ( 'NONE',  ( -6.249999999999900524, 10.82531754730554496, 3.000000000000000000 ) ) ;
#201 = EDGE_LOOP ( 'NONE', ( #407, #56, #430, #905 ) ) ;
#202 = CARTESIAN_POINT ( 'NONE',  ( 117.0000000000000000, 0.000000000000000000, 0.000000000000000000 ) ) ;
#203 = EDGE_CURVE ( 'NONE', #169, #223, #743, .T. ) ;
#204 = CYLINDRICAL_SURFACE ( 'NONE', #664, 21.99999999999999289 ) ;
#205 = DIRECTION ( 'NONE',  ( -0.000000000000000000, -0.000000000000000000, -1.000000000000000000 ) ) ;
#206 = EDGE_LOOP ( 'NONE', ( #314, #1105, #176, #854 ) ) ;
#207 = CARTESIAN_POINT ( 'NONE',  ( -8.728703347107833388E-14, -12.50000000000000000, 0.000000000000000000 ) ) ;
#208 = CIRCLE ( 'NONE', #865, 1.650000000000000355 ) ;
#209 = PLANE ( 'NONE',  #1135 ) ;
#210 = EDGE_CURVE ( 'NONE', #775, #691, #1081, .T. ) ;
#211 = CARTESIAN_POINT ( 'NONE',  ( 1.256317323729507329, -24.96841338135238431, -3.000000000000000000 ) ) ;
#212 = CIRCLE ( 'NONE', #252, 2.099999999999999645 ) ;
#213 = ORIENTED_EDGE ( 'NONE', *, *, #268, .T. ) ;
#214 = FACE_BOUND ( 'NONE', #235, .T. ) ;
#215 = AXIS2_PLACEMENT_3D ( 'NONE', #49, #1108, #143 ) ;
#216 = DIRECTION ( 'NONE',  ( -1.000000000000000000, 0.000000000000000000, 0.000000000000000000 ) ) ;
#217 = EDGE_CURVE ( 'NONE', #504, #518, #920, .T. ) ;
#218 = CARTESIAN_POINT ( 'NONE',  ( -10.82531754730554496, -6.249999999999900524, 3.000000000000000000 ) ) ;
#219 = EDGE_LOOP ( 'NONE', ( #192, #324 ) ) ;
#220 = PERSON_AND_ORGANIZATION_ROLE ( 'design_owner' ) ;
#221 = EDGE_LOOP ( 'NONE', ( #196, #858, #1022, #261 ) ) ;
#222 = FACE_OUTER_BOUND ( 'NONE', #1117, .T. ) ;
#223 = VERTEX_POINT ( 'NONE', #387 ) ;
#224 = PERSON_AND_ORGANIZATION_ROLE ( 'creator' ) ;
#225 = AXIS2_PLACEMENT_3D ( 'NONE', #207, #118, #832 ) ;
#226 = CIRCLE ( 'NONE', #677, 17.00000000000000000 ) ;
#227 = VERTEX_POINT ( 'NONE', #991 ) ;
#228 = LINE ( 'NONE', #860, #1020 ) ;
#229 = ORIENTED_EDGE ( 'NONE', *, *, #528, .T. ) ;
#230 = CARTESIAN_POINT ( 'NONE',  ( 0.000000000000000000, 0.000000000000000000, 0.000000000000000000 ) ) ;
#231 = EDGE_CURVE ( 'NONE', #44, #1136, #728, .T. ) ;
#232 = VERTEX_POINT ( 'NONE', #487 ) ;
#233 = AXIS2_PLACEMENT_3D ( 'NONE', #515, #864, #132 ) ;
#234 = DIRECTION ( 'NONE',  ( -0.000000000000000000, -0.000000000000000000, -1.000000000000000000 ) ) ;
#235 = EDGE_LOOP ( 'NONE', ( #796, #882 ) ) ;
#236 = DATE_AND_TIME ( #682, #1057 ) ;
#237 = APPROVAL ( #45, 'æœª' ) ;
#238 = VERTEX_POINT ( 'NONE', #128 ) ;
#239 = FACE_OUTER_BOUND ( 'NONE', #201, .T. ) ;
#240 = EDGE_CURVE ( 'NONE', #488, #597, #874, .T. ) ;
#241 = DIRECTION ( 'NONE',  ( -0.9987365352540955588, 0.05025269294918079804, 0.000000000000000000 ) ) ;
#242 = FACE_OUTER_BOUND ( 'NONE', #10, .T. ) ;
#243 = PERSON_AND_ORGANIZATION ( #400, #591 ) ;
#244 = VERTEX_POINT ( 'NONE', #760 ) ;
#245 = DIRECTION ( 'NONE',  ( -1.000000000000000000, 0.000000000000000000, 0.000000000000000000 ) ) ;
#246 = ADVANCED_FACE ( 'NONE', ( #856 ), #1116, .F. ) ;
#247 = CARTESIAN_POINT ( 'NONE',  ( 12.47531754730549913, 6.249999999999975131, 0.000000000000000000 ) ) ;
#248 = VECTOR ( 'NONE', #455, 1000.000000000000000 ) ;
#249 = DIRECTION ( 'NONE',  ( 1.000000000000000000, 0.000000000000000000, 0.000000000000000000 ) ) ;
#250 = ORIENTED_EDGE ( 'NONE', *, *, #41, .T. ) ;
#251 = CYLINDRICAL_SURFACE ( 'NONE', #689, 1.650000000000000355 ) ;
#252 = AXIS2_PLACEMENT_3D ( 'NONE', #200, #995, #191 ) ;
#253 = DIRECTION ( 'NONE',  ( -1.000000000000000000, 0.000000000000000000, 0.000000000000000000 ) ) ;
#254 = EDGE_CURVE ( 'NONE', #824, #1158, #1033, .T. ) ;
#255 = AXIS2_PLACEMENT_3D ( 'NONE', #1146, #265, #452 ) ;
#256 = CARTESIAN_POINT ( 'NONE',  ( 1.649999999999912870, -12.50000000000000000, 0.000000000000000000 ) ) ;
#257 = APPROVAL_DATE_TIME ( #619, #742 ) ;
#258 = EDGE_LOOP ( 'NONE', ( #566, #321, #935, #146 ) ) ;
#259 = DIRECTION ( 'NONE',  ( 1.000000000000000000, 0.000000000000000000, 0.000000000000000000 ) ) ;
#260 = CARTESIAN_POINT ( 'NONE',  ( -8.349999999999898392, 10.82531754730554496, 0.000000000000000000 ) ) ;
#261 = ORIENTED_EDGE ( 'NONE', *, *, #217, .F. ) ;
#262 = ORIENTED_EDGE ( 'NONE', *, *, #91, .T. ) ;
#263 = DIRECTION ( 'NONE',  ( -0.000000000000000000, -0.000000000000000000, -1.000000000000000000 ) ) ;
#264 = DIRECTION ( 'NONE',  ( 0.9987365352540955588, 0.05025269294918090213, -0.000000000000000000 ) ) ;
#265 = DIRECTION ( 'NONE',  ( 0.000000000000000000, 0.000000000000000000, 1.000000000000000000 ) ) ;
#266 = VERTEX_POINT ( 'NONE', #308 ) ;
#267 = CARTESIAN_POINT ( 'NONE',  ( 24.99999999999999289, 3.061616997868382254E-15, 3.000000000000000000 ) ) ;
#268 = EDGE_CURVE ( 'NONE', #346, #1147, #780, .T. ) ;
#269 = CARTESIAN_POINT ( 'NONE',  ( 10.40000000000000036, 0.000000000000000000, 3.000000000000000000 ) ) ;
#270 = DIRECTION ( 'NONE',  ( -1.000000000000000000, 0.000000000000000000, 0.000000000000000000 ) ) ;
#271 = CIRCLE ( 'NONE', #575, 1.649999999999998579 ) ;
#272 = ORIENTED_EDGE ( 'NONE', *, *, #268, .F. ) ;
#273 = DIRECTION ( 'NONE',  ( 0.000000000000000000, 0.000000000000000000, 1.000000000000000000 ) ) ;
#274 = DIRECTION ( 'NONE',  ( -0.000000000000000000, -0.000000000000000000, -1.000000000000000000 ) ) ;
#275 = FACE_OUTER_BOUND ( 'NONE', #46, .T. ) ;
#276 = ORIENTED_EDGE ( 'NONE', *, *, #758, .F. ) ;
#277 = FACE_BOUND ( 'NONE', #992, .T. ) ;
#278 = CIRCLE ( 'NONE', #939, 1.650000000000000133 ) ;
#279 = CARTESIAN_POINT ( 'NONE',  ( 1.105559244881978653, 21.97220377559009563, -3.000000000000000000 ) ) ;
#280 = CIRCLE ( 'NONE', #472, 2.099999999999999645 ) ;
#281 = AXIS2_PLACEMENT_3D ( 'NONE', #754, #965, #517 ) ;
#282 = EDGE_CURVE ( 'NONE', #973, #1142, #326, .T. ) ;
#283 = PLANE ( 'NONE',  #814 ) ;
#284 = ORIENTED_EDGE ( 'NONE', *, *, #466, .T. ) ;
#285 = CARTESIAN_POINT ( 'NONE',  ( 100.0000000000000000, 0.000000000000000000, 0.000000000000000000 ) ) ;
#286 = LINE ( 'NONE', #354, #902 ) ;
#287 = PRODUCT_RELATED_PRODUCT_CATEGORY ( 'detail', '', ( #313 ) ) ;
#288 = DIRECTION ( 'NONE',  ( -0.05025269294918090907, 0.9987365352540956698, 0.000000000000000000 ) ) ;
#289 = EDGE_CURVE ( 'NONE', #848, #589, #834, .T. ) ;
#290 = ORIENTED_EDGE ( 'NONE', *, *, #429, .T. ) ;
#291 = DIRECTION ( 'NONE',  ( -1.000000000000000000, 0.000000000000000000, 0.000000000000000000 ) ) ;
#292 = CIRCLE ( 'NONE', #255, 2.100000000000000977 ) ;
#293 = DIRECTION ( 'NONE',  ( -0.05025269294918080498, -0.9987365352540956698, 0.000000000000000000 ) ) ;
#294 = DIRECTION ( 'NONE',  ( -0.000000000000000000, -0.000000000000000000, -1.000000000000000000 ) ) ;
#295 = EDGE_LOOP ( 'NONE', ( #1110, #213, #1045, #668 ) ) ;
#296 = CARTESIAN_POINT ( 'NONE',  ( -9.175317547305409605, 6.250000000000127010, 3.000000000000000000 ) ) ;
#297 = EDGE_CURVE ( 'NONE', #346, #402, #228, .T. ) ;
#298 = CARTESIAN_POINT ( 'NONE',  ( 0.000000000000000000, 0.000000000000000000, -3.000000000000000000 ) ) ;
#299 = DIRECTION ( 'NONE',  ( 0.000000000000000000, 0.000000000000000000, 1.000000000000000000 ) ) ;
#300 = VERTEX_POINT ( 'NONE', #749 ) ;
#301 = DIRECTION ( 'NONE',  ( -0.000000000000000000, -0.000000000000000000, -1.000000000000000000 ) ) ;
#302 = EDGE_CURVE ( 'NONE', #839, #518, #29, .T. ) ;
#303 = CARTESIAN_POINT ( 'NONE',  ( 99.92763441975104399, -16.99984597644329654, 0.000000000000000000 ) ) ;
#304 = DIRECTION ( 'NONE',  ( -0.9987365352540955588, -0.05025269294918076335, 0.000000000000000000 ) ) ;
#305 = ORIENTED_EDGE ( 'NONE', *, *, #34, .T. ) ;
#306 = PERSON_AND_ORGANIZATION ( #400, #591 ) ;
#307 = VERTEX_POINT ( 'NONE', #139 ) ;
#308 = CARTESIAN_POINT ( 'NONE',  ( -9.175317547305409605, 6.250000000000127010, 3.000000000000000000 ) ) ;
#309 = EDGE_LOOP ( 'NONE', ( #4, #388, #417, #305 ) ) ;
#310 = ORIENTED_EDGE ( 'NONE', *, *, #334, .T. ) ;
#311 = DIRECTION ( 'NONE',  ( -0.000000000000000000, -0.000000000000000000, -1.000000000000000000 ) ) ;
#312 = ADVANCED_FACE ( 'NONE', ( #222 ), #496, .F. ) ;
#313 = PRODUCT ( '\X2\7535673a56fa5b9a\X0\2', '\X2\7535673a56fa5b9a\X0\2', '', ( #588 ) ) ;
#314 = ORIENTED_EDGE ( 'NONE', *, *, #534, .F. ) ;
#315 = DIRECTION ( 'NONE',  ( -0.000000000000000000, -0.000000000000000000, 1.000000000000000000 ) ) ;
#316 = VECTOR ( 'NONE', #107, 1000.000000000000227 ) ;
#317 = AXIS2_PLACEMENT_3D ( 'NONE', #178, #425, #253 ) ;
#318 = ORIENTED_EDGE ( 'NONE', *, *, #153, .F. ) ;
#319 = DIRECTION ( 'NONE',  ( 0.000000000000000000, 0.000000000000000000, 1.000000000000000000 ) ) ;
#320 = CC_DESIGN_PERSON_AND_ORGANIZATION_ASSIGNMENT ( #243, #493, ( #896 ) ) ;
#321 = ORIENTED_EDGE ( 'NONE', *, *, #838, .T. ) ;
#322 = EDGE_CURVE ( 'NONE', #307, #949, #271, .T. ) ;
#323 =( NAMED_UNIT ( * ) PLANE_ANGLE_UNIT ( ) SI_UNIT ( $, .RADIAN. ) );
#324 = ORIENTED_EDGE ( 'NONE', *, *, #373, .F. ) ;
#325 = LINE ( 'NONE', #338, #1015 ) ;
#326 = CIRCLE ( 'NONE', #926, 2.100000000000000977 ) ;
#327 = CIRCLE ( 'NONE', #365, 1.649999999999998579 ) ;
#328 = CIRCLE ( 'NONE', #929, 24.99999999999999289 ) ;
#329 = CARTESIAN_POINT ( 'NONE',  ( -24.99999999999999289, 0.000000000000000000, 3.000000000000000000 ) ) ;
#330 = EDGE_LOOP ( 'NONE', ( #733, #284, #767, #412 ) ) ;
#331 = CALENDAR_DATE ( 2026, 11, 6 ) ;
#332 = ORIENTED_EDGE ( 'NONE', *, *, #925, .T. ) ;
#333 = DIRECTION ( 'NONE',  ( 1.000000000000000000, 0.000000000000000000, 0.000000000000000000 ) ) ;
#334 = EDGE_CURVE ( 'NONE', #843, #551, #1133, .T. ) ;
#335 = CARTESIAN_POINT ( 'NONE',  ( 1.105559244881976433, 21.97220377559009563, -3.000000000000000000 ) ) ;
#336 = DIRECTION ( 'NONE',  ( 0.000000000000000000, 0.000000000000000000, 1.000000000000000000 ) ) ;
#337 = ORIENTED_EDGE ( 'NONE', *, *, #119, .F. ) ;
#338 = CARTESIAN_POINT ( 'NONE',  ( -12.47531754730554354, -6.249999999999900524, 3.000000000000000000 ) ) ;
#339 = EDGE_CURVE ( 'NONE', #347, #857, #180, .T. ) ;
#340 = CARTESIAN_POINT ( 'NONE',  ( 1.650000000000000133, 12.50000000000000000, 0.000000000000000000 ) ) ;
#341 = ORIENTED_EDGE ( 'NONE', *, *, #859, .T. ) ;
#342 = EDGE_LOOP ( 'NONE', ( #786, #262, #158, #545, #82 ) ) ;
#343 = CARTESIAN_POINT ( 'NONE',  ( 100.0000000000000000, 0.000000000000000000, 0.000000000000000000 ) ) ;
#344 = CARTESIAN_POINT ( 'NONE',  ( 12.47531754730549913, 6.249999999999975131, 3.000000000000000000 ) ) ;
#345 = AXIS2_PLACEMENT_3D ( 'NONE', #80, #427, #249 ) ;
#346 = VERTEX_POINT ( 'NONE', #1037 ) ;
#347 = VERTEX_POINT ( 'NONE', #667 ) ;
#348 = DIRECTION ( 'NONE',  ( -1.000000000000000000, 0.000000000000000000, 0.000000000000000000 ) ) ;
#349 = CARTESIAN_POINT ( 'NONE',  ( 0.000000000000000000, 0.000000000000000000, 0.000000000000000000 ) ) ;
#350 = CARTESIAN_POINT ( 'NONE',  ( 100.0000000000000000, 20.00000000000000000, -3.000000000000000000 ) ) ;
#351 = EDGE_CURVE ( 'NONE', #232, #402, #725, .T. ) ;
#352 = ORIENTED_EDGE ( 'NONE', *, *, #1012, .T. ) ;
#353 = DIRECTION ( 'NONE',  ( -1.000000000000000000, 0.000000000000000000, 0.000000000000000000 ) ) ;
#354 = CARTESIAN_POINT ( 'NONE',  ( -9.175317547305546384, -6.249999999999900524, 3.000000000000000000 ) ) ;
#355 = APPROVAL ( #950, 'æœª' ) ;
#356 = LINE ( 'NONE', #713, #501 ) ;
#357 = PERSON_AND_ORGANIZATION ( #400, #591 ) ;
#358 = VECTOR ( 'NONE', #397, 1000.000000000000000 ) ;
#359 = EDGE_CURVE ( 'NONE', #1142, #488, #764, .T. ) ;
#360 = VERTEX_POINT ( 'NONE', #211 ) ;
#361 = CARTESIAN_POINT ( 'NONE',  ( 100.0000000000000000, 20.00000000000000000, 3.000000000000000000 ) ) ;
#362 = CIRCLE ( 'NONE', #1018, 1.650000000000000355 ) ;
#363 = DIRECTION ( 'NONE',  ( -0.000000000000000000, -0.000000000000000000, 1.000000000000000000 ) ) ;
#364 = DIRECTION ( 'NONE',  ( -0.9987365352540955588, -0.05025269294918090213, 0.000000000000000000 ) ) ;
#365 = AXIS2_PLACEMENT_3D ( 'NONE', #616, #1070, #184 ) ;
#366 = ORIENTED_EDGE ( 'NONE', *, *, #794, .F. ) ;
#367 = CARTESIAN_POINT ( 'NONE',  ( 10.82531754730549878, 6.249999999999975131, 3.000000000000000000 ) ) ;
#368 = ADVANCED_FACE ( 'NONE', ( #1120 ), #502, .F. ) ;
#369 = CARTESIAN_POINT ( 'NONE',  ( -6.249999999999900524, 10.82531754730554496, 3.000000000000000000 ) ) ;
#370 = DIRECTION ( 'NONE',  ( 0.000000000000000000, 0.000000000000000000, 1.000000000000000000 ) ) ;
#371 = EDGE_LOOP ( 'NONE', ( #642, #1016, #447, #739 ) ) ;
#372 = CARTESIAN_POINT ( 'NONE',  ( 100.0000000000000000, 0.000000000000000000, 3.000000000000000000 ) ) ;
#373 = EDGE_CURVE ( 'NONE', #300, #791, #516, .T. ) ;
#374 = DIRECTION ( 'NONE',  ( -0.000000000000000000, -0.000000000000000000, -1.000000000000000000 ) ) ;
#375 = CIRCLE ( 'NONE', #225, 1.650000000000000133 ) ;
#376 = VECTOR ( 'NONE', #810, 1000.000000000000000 ) ;
#377 = FACE_OUTER_BOUND ( 'NONE', #52, .T. ) ;
#378 = VERTEX_POINT ( 'NONE', #572 ) ;
#379 = CYLINDRICAL_SURFACE ( 'NONE', #1031, 2.100000000000000977 ) ;
#380 = DIRECTION ( 'NONE',  ( 0.000000000000000000, 0.000000000000000000, 1.000000000000000000 ) ) ;
#381 = CARTESIAN_POINT ( 'NONE',  ( -1.650000000000087619, -12.50000000000000000, 0.000000000000000000 ) ) ;
#382 = ORIENTED_EDGE ( 'NONE', *, *, #737, .F. ) ;
#383 = FACE_BOUND ( 'NONE', #88, .T. ) ;
#384 = AXIS2_PLACEMENT_3D ( 'NONE', #924, #1103, #127 ) ;
#385 = AXIS2_PLACEMENT_3D ( 'NONE', #571, #841, #431 ) ;
#386 = DIRECTION ( 'NONE',  ( -0.05025269294918077029, 0.9987365352540956698, 0.000000000000000000 ) ) ;
#387 = CARTESIAN_POINT ( 'NONE',  ( 1.105559244881952008, -21.97220377559009918, -3.000000000000000000 ) ) ;
#388 = ORIENTED_EDGE ( 'NONE', *, *, #708, .F. ) ;
#389 = EDGE_CURVE ( 'NONE', #402, #232, #624, .T. ) ;
#390 = DIRECTION ( 'NONE',  ( -0.000000000000000000, -0.000000000000000000, -1.000000000000000000 ) ) ;
#391 = CARTESIAN_POINT ( 'NONE',  ( 0.000000000000000000, 0.000000000000000000, -3.000000000000000000 ) ) ;
#392 = DIRECTION ( 'NONE',  ( 1.000000000000000000, 0.000000000000000000, 0.000000000000000000 ) ) ;
#393 = ORIENTED_EDGE ( 'NONE', *, *, #210, .F. ) ;
#394 = LINE ( 'NONE', #193, #316 ) ;
#395 = ORIENTED_EDGE ( 'NONE', *, *, #570, .F. ) ;
#396 = AXIS2_PLACEMENT_3D ( 'NONE', #897, #293, #901 ) ;
#397 = DIRECTION ( 'NONE',  ( -0.000000000000000000, -0.000000000000000000, 1.000000000000000000 ) ) ;
#398 = DIRECTION ( 'NONE',  ( -1.000000000000000000, 0.000000000000000000, 0.000000000000000000 ) ) ;
#399 = AXIS2_PLACEMENT_3D ( 'NONE', #999, #565, #1088 ) ;
#400 = PERSON ( 'æœª', 'æœª', 'æœª', ('æœª'), ('æœª'), ('æœª') ) ;
#401 = AXIS2_PLACEMENT_3D ( 'NONE', #230, #936, #692 ) ;
#402 = VERTEX_POINT ( 'NONE', #340 ) ;
#403 = VERTEX_POINT ( 'NONE', #511 ) ;
#404 = CIRCLE ( 'NONE', #706, 1.650000000000000133 ) ;
#405 = ADVANCED_FACE ( 'NONE', ( #1132 ), #522, .T. ) ;
#406 = CARTESIAN_POINT ( 'NONE',  ( -6.250000000000052403, -10.82531754730545792, 3.000000000000000000 ) ) ;
#407 = ORIENTED_EDGE ( 'NONE', *, *, #254, .F. ) ;
#408 =( LENGTH_UNIT ( ) NAMED_UNIT ( * ) SI_UNIT ( .MILLI., .METRE. ) );
#409 = ORIENTED_EDGE ( 'NONE', *, *, #47, .T. ) ;
#410 = EDGE_CURVE ( 'NONE', #223, #1158, #1066, .T. ) ;
#411 = DIRECTION ( 'NONE',  ( 1.000000000000000000, 0.000000000000000000, 0.000000000000000000 ) ) ;
#412 = ORIENTED_EDGE ( 'NONE', *, *, #919, .F. ) ;
#413 = DIRECTION ( 'NONE',  ( -0.000000000000000000, -0.000000000000000000, -1.000000000000000000 ) ) ;
#414 = EDGE_LOOP ( 'NONE', ( #174, #50 ) ) ;
#415 = VECTOR ( 'NONE', #374, 1000.000000000000000 ) ;
#416 = CARTESIAN_POINT ( 'NONE',  ( 100.0000000000000000, -20.00000000000000000, 3.000000000000000000 ) ) ;
#417 = ORIENTED_EDGE ( 'NONE', *, *, #745, .T. ) ;
#418 = EDGE_CURVE ( 'NONE', #1028, #164, #1032, .T. ) ;
#419 = LOCAL_TIME ( 15, 12, 42.00000000000000000, #93 ) ;
#420 = ORIENTED_EDGE ( 'NONE', *, *, #418, .F. ) ;
#421 = DIRECTION ( 'NONE',  ( -0.000000000000000000, -0.000000000000000000, -1.000000000000000000 ) ) ;
#422 = AXIS2_PLACEMENT_3D ( 'NONE', #676, #583, #398 ) ;
#423 = CIRCLE ( 'NONE', #632, 1.650000000000000133 ) ;
#424 = CIRCLE ( 'NONE', #1096, 24.99999999999999289 ) ;
#425 = DIRECTION ( 'NONE',  ( -0.000000000000000000, -0.000000000000000000, -1.000000000000000000 ) ) ;
#426 = AXIS2_PLACEMENT_3D ( 'NONE', #1099, #294, #656 ) ;
#427 = DIRECTION ( 'NONE',  ( 0.000000000000000000, 0.000000000000000000, 1.000000000000000000 ) ) ;
#428 = APPROVAL_DATE_TIME ( #67, #237 ) ;
#429 = EDGE_CURVE ( 'NONE', #848, #188, #1155, .T. ) ;
#430 = ORIENTED_EDGE ( 'NONE', *, *, #203, .T. ) ;
#431 = DIRECTION ( 'NONE',  ( 1.000000000000000000, 0.000000000000000000, 0.000000000000000000 ) ) ;
#432 = CARTESIAN_POINT ( 'NONE',  ( 100.0000000000000000, 0.000000000000000000, -3.000000000000000000 ) ) ;
#433 = ORIENTED_EDGE ( 'NONE', *, *, #449, .F. ) ;
#434 = ORIENTED_EDGE ( 'NONE', *, *, #828, .F. ) ;
#435 = DIRECTION ( 'NONE',  ( -1.000000000000000000, 0.000000000000000000, 0.000000000000000000 ) ) ;
#436 = AXIS2_PLACEMENT_3D ( 'NONE', #643, #131, #567 ) ;
#437 = VECTOR ( 'NONE', #975, 1000.000000000000000 ) ;
#438 = CYLINDRICAL_SURFACE ( 'NONE', #1089, 1.650000000000000133 ) ;
#439 = DIRECTION ( 'NONE',  ( -1.000000000000000000, 0.000000000000000000, 0.000000000000000000 ) ) ;
#440 = ORIENTED_EDGE ( 'NONE', *, *, #240, .F. ) ;
#441 = CYLINDRICAL_SURFACE ( 'NONE', #688, 1.650000000000000355 ) ;
#442 = CC_DESIGN_APPROVAL ( #742, ( #923 ) ) ;
#443 = ADVANCED_FACE ( 'NONE', ( #875 ), #866, .F. ) ;
#444 = DIRECTION ( 'NONE',  ( -0.05025269294918075641, -0.9987365352540956698, 0.000000000000000000 ) ) ;
#445 = CIRCLE ( 'NONE', #837, 24.99999999999999289 ) ;
#446 = ORIENTED_EDGE ( 'NONE', *, *, #231, .T. ) ;
#447 = ORIENTED_EDGE ( 'NONE', *, *, #595, .F. ) ;
#448 = CARTESIAN_POINT ( 'NONE',  ( -12.47531754730554354, -6.249999999999900524, 0.000000000000000000 ) ) ;
#449 = EDGE_CURVE ( 'NONE', #61, #227, #226, .T. ) ;
#450 = FACE_OUTER_BOUND ( 'NONE', #586, .T. ) ;
#451 = EDGE_CURVE ( 'NONE', #1158, #697, #527, .T. ) ;
#452 = DIRECTION ( 'NONE',  ( 1.000000000000000000, 0.000000000000000000, 0.000000000000000000 ) ) ;
#453 = EDGE_LOOP ( 'NONE', ( #1040, #673, #1047, #930 ) ) ;
#454 = DIRECTION ( 'NONE',  ( 0.000000000000000000, 0.000000000000000000, -1.000000000000000000 ) ) ;
#455 = DIRECTION ( 'NONE',  ( -0.000000000000000000, -0.000000000000000000, -1.000000000000000000 ) ) ;
#456 = CARTESIAN_POINT ( 'NONE',  ( -10.82531754730540996, 6.250000000000127010, 3.000000000000000000 ) ) ;
#457 = AXIS2_PLACEMENT_3D ( 'NONE', #194, #14, #741 ) ;
#458 = EDGE_LOOP ( 'NONE', ( #610, #621, #469, #784 ) ) ;
#459 = EDGE_CURVE ( 'NONE', #1143, #839, #1141, .T. ) ;
#460 = CARTESIAN_POINT ( 'NONE',  ( 100.0000000000000000, -20.00000000000000000, -3.000000000000000000 ) ) ;
#461 = AXIS2_PLACEMENT_3D ( 'NONE', #581, #413, #1023 ) ;
#462 = DIRECTION ( 'NONE',  ( 0.000000000000000000, 0.000000000000000000, 1.000000000000000000 ) ) ;
#463 = FACE_BOUND ( 'NONE', #1084, .T. ) ;
#464 = ORIENTED_EDGE ( 'NONE', *, *, #906, .T. ) ;
#465 = CARTESIAN_POINT ( 'NONE',  ( -6.250000000000052403, -10.82531754730545792, 3.000000000000000000 ) ) ;
#466 = EDGE_CURVE ( 'NONE', #675, #878, #1062, .T. ) ;
#467 = FACE_OUTER_BOUND ( 'NONE', #976, .T. ) ;
#468 = CARTESIAN_POINT ( 'NONE',  ( 0.000000000000000000, 0.000000000000000000, 2.000000000000000000 ) ) ;
#469 = ORIENTED_EDGE ( 'NONE', *, *, #1049, .F. ) ;
#470 = CARTESIAN_POINT ( 'NONE',  ( 24.99999999999999289, 3.061616997868382254E-15, 3.000000000000000000 ) ) ;
#471 = DIRECTION ( 'NONE',  ( -0.000000000000000000, -0.000000000000000000, -1.000000000000000000 ) ) ;
#472 = AXIS2_PLACEMENT_3D ( 'NONE', #1061, #974, #170 ) ;
#473 = AXIS2_PLACEMENT_3D ( 'NONE', #349, #892, #712 ) ;
#474 = FACE_BOUND ( 'NONE', #618, .T. ) ;
#475 = ORIENTED_EDGE ( 'NONE', *, *, #1149, .T. ) ;
#476 = CARTESIAN_POINT ( 'NONE',  ( 100.0000000000000000, 0.000000000000000000, -3.000000000000000000 ) ) ;
#477 = CARTESIAN_POINT ( 'NONE',  ( 1.256317323729521318, 24.96841338135238786, 2.000000000000000000 ) ) ;
#478 = EDGE_CURVE ( 'NONE', #1094, #675, #1050, .T. ) ;
#479 = CARTESIAN_POINT ( 'NONE',  ( 100.0000000000000000, -20.00000000000000000, 3.000000000000000000 ) ) ;
#480 = VERTEX_POINT ( 'NONE', #247 ) ;
#481 = FACE_BOUND ( 'NONE', #1069, .T. ) ;
#482 = AXIS2_PLACEMENT_3D ( 'NONE', #940, #661, #1014 ) ;
#483 = CIRCLE ( 'NONE', #873, 20.00000000000000355 ) ;
#484 = VECTOR ( 'NONE', #120, 1000.000000000000114 ) ;
#485 = CARTESIAN_POINT ( 'NONE',  ( -4.149999999999900879, 10.82531754730554496, 0.000000000000000000 ) ) ;
#486 = CC_DESIGN_PERSON_AND_ORGANIZATION_ASSIGNMENT ( #1046, #220, ( #313 ) ) ;
#487 = CARTESIAN_POINT ( 'NONE',  ( -1.650000000000000133, 12.50000000000000000, 0.000000000000000000 ) ) ;
#488 = VERTEX_POINT ( 'NONE', #607 ) ;
#489 = DIRECTION ( 'NONE',  ( 1.000000000000000000, 0.000000000000000000, -0.000000000000000000 ) ) ;
#490 = DIRECTION ( 'NONE',  ( 1.000000000000000000, 0.000000000000000000, 0.000000000000000000 ) ) ;
#491 = CARTESIAN_POINT ( 'NONE',  ( 12.50000000000000000, 0.000000000000000000, 0.000000000000000000 ) ) ;
#492 = EDGE_LOOP ( 'NONE', ( #604, #984, #440, #35 ) ) ;
#493 = PERSON_AND_ORGANIZATION_ROLE ( 'creator' ) ;
#494 = EDGE_CURVE ( 'NONE', #592, #347, #625, .T. ) ;
#495 = ORIENTED_EDGE ( 'NONE', *, *, #891, .F. ) ;
#496 = CYLINDRICAL_SURFACE ( 'NONE', #687, 1.649999999999998579 ) ;
#497 = VERTEX_POINT ( 'NONE', #617 ) ;
#498 = PERSON_AND_ORGANIZATION ( #400, #591 ) ;
#499 = EDGE_LOOP ( 'NONE', ( #582, #1034 ) ) ;
#500 = EDGE_CURVE ( 'NONE', #238, #244, #980, .T. ) ;
#501 = VECTOR ( 'NONE', #1067, 1000.000000000000000 ) ;
#502 = CYLINDRICAL_SURFACE ( 'NONE', #13, 1.650000000000000355 ) ;
#503 = ORIENTED_EDGE ( 'NONE', *, *, #700, .F. ) ;
#504 = VERTEX_POINT ( 'NONE', #880 ) ;
#505 = DIRECTION ( 'NONE',  ( 1.000000000000000000, 0.000000000000000000, 0.000000000000000000 ) ) ;
#506 = ORIENTED_EDGE ( 'NONE', *, *, #1027, .T. ) ;
#507 = PERSON_AND_ORGANIZATION ( #400, #591 ) ;
#508 = ORIENTED_EDGE ( 'NONE', *, *, #185, .F. ) ;
#509 = CYLINDRICAL_SURFACE ( 'NONE', #233, 2.099999999999998757 ) ;
#510 = AXIS2_PLACEMENT_3D ( 'NONE', #998, #655, #1097 ) ;
#511 = CARTESIAN_POINT ( 'NONE',  ( 1.256317323729510216, 24.96841338135238431, -3.000000000000000000 ) ) ;
#512 = ADVANCED_FACE ( 'NONE', ( #79 ), #438, .F. ) ;
#513 = LINE ( 'NONE', #972, #556 ) ;
#514 = ORIENTED_EDGE ( 'NONE', *, *, #153, .T. ) ;
#515 = CARTESIAN_POINT ( 'NONE',  ( -6.249999999999900524, 10.82531754730554496, 3.000000000000000000 ) ) ;
#516 = CIRCLE ( 'NONE', #932, 1.650000000000000355 ) ;
#517 = DIRECTION ( 'NONE',  ( 1.000000000000000000, 0.000000000000000000, 0.000000000000000000 ) ) ;
#518 = VERTEX_POINT ( 'NONE', #260 ) ;
#519 = CALENDAR_DATE ( 2026, 11, 6 ) ;
#520 = ORIENTED_EDGE ( 'NONE', *, *, #322, .T. ) ;
#521 = CARTESIAN_POINT ( 'NONE',  ( 9.175317547305457566, -6.250000000000052403, 3.000000000000000000 ) ) ;
#522 = PLANE ( 'NONE',  #827 ) ;
#523 = FACE_OUTER_BOUND ( 'NONE', #721, .T. ) ;
#524 = ORIENTED_EDGE ( 'NONE', *, *, #254, .T. ) ;
#525 = CARTESIAN_POINT ( 'NONE',  ( 10.82531754730549878, 6.249999999999975131, 0.000000000000000000 ) ) ;
#526 = AXIS2_PLACEMENT_3D ( 'NONE', #465, #301, #820 ) ;
#527 = CIRCLE ( 'NONE', #473, 21.99999999999999289 ) ;
#528 = EDGE_CURVE ( 'NONE', #843, #480, #1150, .T. ) ;
#529 = CARTESIAN_POINT ( 'NONE',  ( -8.728703347107833388E-14, -12.50000000000000000, 3.000000000000000000 ) ) ;
#530 = ORIENTED_EDGE ( 'NONE', *, *, #500, .T. ) ;
#531 = ORIENTED_EDGE ( 'NONE', *, *, #478, .F. ) ;
#532 = CARTESIAN_POINT ( 'NONE',  ( -6.249999999999900524, 10.82531754730554496, 0.000000000000000000 ) ) ;
#533 = EDGE_CURVE ( 'NONE', #589, #848, #278, .T. ) ;
#534 = EDGE_CURVE ( 'NONE', #899, #775, #690, .T. ) ;
#535 = CARTESIAN_POINT ( 'NONE',  ( 1.105559244881952008, -21.97220377559009918, -3.000000000000000000 ) ) ;
#536 = VECTOR ( 'NONE', #234, 1000.000000000000000 ) ;
#537 = AXIS2_PLACEMENT_3D ( 'NONE', #885, #273, #189 ) ;
#538 = AXIS2_PLACEMENT_3D ( 'NONE', #833, #748, #490 ) ;
#539 = CARTESIAN_POINT ( 'NONE',  ( 0.000000000000000000, 0.000000000000000000, 3.000000000000000000 ) ) ;
#540 = EDGE_LOOP ( 'NONE', ( #531, #561, #72, #815 ) ) ;
#541 = LINE ( 'NONE', #267, #126 ) ;
#542 = DIRECTION ( 'NONE',  ( -0.000000000000000000, -0.000000000000000000, -1.000000000000000000 ) ) ;
#543 = DIRECTION ( 'NONE',  ( 0.000000000000000000, 0.000000000000000000, -1.000000000000000000 ) ) ;
#544 = DATE_TIME_ROLE ( 'classification_date' ) ;
#545 = ORIENTED_EDGE ( 'NONE', *, *, #570, .T. ) ;
#546 = CYLINDRICAL_SURFACE ( 'NONE', #181, 17.00000000000000000 ) ;
#547 = CARTESIAN_POINT ( 'NONE',  ( 10.82531754730549878, 6.249999999999975131, 3.000000000000000000 ) ) ;
#548 = DESIGN_CONTEXT ( 'detailed design', #145, 'design' ) ;
#549 = FACE_BOUND ( 'NONE', #714, .T. ) ;
#550 = EDGE_CURVE ( 'NONE', #497, #857, #959, .T. ) ;
#551 = VERTEX_POINT ( 'NONE', #113 ) ;
#552 = FACE_OUTER_BOUND ( 'NONE', #797, .T. ) ;
#553 = CIRCLE ( 'NONE', #103, 24.99999999999999289 ) ;
#554 = LINE ( 'NONE', #102, #415 ) ;
#555 = PLANE ( 'NONE',  #569 ) ;
#556 = VECTOR ( 'NONE', #66, 1000.000000000000000 ) ;
#557 = EDGE_LOOP ( 'NONE', ( #149, #229, #179, #937 ) ) ;
#558 = FACE_BOUND ( 'NONE', #819, .T. ) ;
#559 = FACE_OUTER_BOUND ( 'NONE', #453, .T. ) ;
#560 = CYLINDRICAL_SURFACE ( 'NONE', #1073, 1.649999999999998579 ) ;
#561 = ORIENTED_EDGE ( 'NONE', *, *, #794, .T. ) ;
#562 = LINE ( 'NONE', #1041, #137 ) ;
#563 = ADVANCED_FACE ( 'NONE', ( #450 ), #822, .T. ) ;
#564 = CARTESIAN_POINT ( 'NONE',  ( 100.0000000000000000, -20.00000000000000000, 2.000000000000000000 ) ) ;
#565 = DIRECTION ( 'NONE',  ( 0.000000000000000000, 0.000000000000000000, 1.000000000000000000 ) ) ;
#566 = ORIENTED_EDGE ( 'NONE', *, *, #494, .F. ) ;
#567 = DIRECTION ( 'NONE',  ( 1.000000000000000000, 0.000000000000000000, 0.000000000000000000 ) ) ;
#568 = AXIS2_PLACEMENT_3D ( 'NONE', #7, #380, #1008 ) ;
#569 = AXIS2_PLACEMENT_3D ( 'NONE', #33, #818, #909 ) ;
#570 = EDGE_CURVE ( 'NONE', #360, #244, #101, .T. ) ;
#571 = CARTESIAN_POINT ( 'NONE',  ( 10.82531754730549878, 6.249999999999975131, 0.000000000000000000 ) ) ;
#572 = CARTESIAN_POINT ( 'NONE',  ( -9.175317547305546384, -6.249999999999900524, 0.000000000000000000 ) ) ;
#573 = ORIENTED_EDGE ( 'NONE', *, *, #859, .F. ) ;
#574 = FACE_BOUND ( 'NONE', #863, .T. ) ;
#575 = AXIS2_PLACEMENT_3D ( 'NONE', #590, #953, #947 ) ;
#576 = VECTOR ( 'NONE', #1154, 1000.000000000000000 ) ;
#577 = CYLINDRICAL_SURFACE ( 'NONE', #988, 1.650000000000000133 ) ;
#578 = DIRECTION ( 'NONE',  ( -0.000000000000000000, -0.000000000000000000, -1.000000000000000000 ) ) ;
#579 = EDGE_CURVE ( 'NONE', #307, #378, #286, .T. ) ;
#580 = ORIENTED_EDGE ( 'NONE', *, *, #163, .F. ) ;
#581 = CARTESIAN_POINT ( 'NONE',  ( -6.250000000000052403, -10.82531754730545792, 3.000000000000000000 ) ) ;
#582 = ORIENTED_EDGE ( 'NONE', *, *, #595, .T. ) ;
#583 = DIRECTION ( 'NONE',  ( -0.000000000000000000, -0.000000000000000000, -1.000000000000000000 ) ) ;
#584 = AXIS2_PLACEMENT_3D ( 'NONE', #367, #1085, #435 ) ;
#585 = VECTOR ( 'NONE', #173, 1000.000000000000000 ) ;
#586 = EDGE_LOOP ( 'NONE', ( #39, #757, #393, #332, #1052, #1123 ) ) ;
#587 = ADVANCED_FACE ( 'NONE', ( #640 ), #736, .F. ) ;
#588 = MECHANICAL_CONTEXT ( 'NONE', #1025, 'mechanical' ) ;
#589 = VERTEX_POINT ( 'NONE', #96 ) ;
#590 = CARTESIAN_POINT ( 'NONE',  ( -10.82531754730554496, -6.249999999999900524, 3.000000000000000000 ) ) ;
#591 = ORGANIZATION ( 'æœª', 'æœª', '' ) ;
#592 = VERTEX_POINT ( 'NONE', #649 ) ;
#593 = VERTEX_POINT ( 'NONE', #645 ) ;
#594 = CIRCLE ( 'NONE', #538, 1.649999999999998579 ) ;
#595 = EDGE_CURVE ( 'NONE', #164, #1028, #1109, .T. ) ;
#596 = DIRECTION ( 'NONE',  ( 1.000000000000000000, 0.000000000000000000, 0.000000000000000000 ) ) ;
#597 = VERTEX_POINT ( 'NONE', #90 ) ;
#598 = CARTESIAN_POINT ( 'NONE',  ( 1.105559244881954006, -21.97220377559010274, 0.000000000000000000 ) ) ;
#599 = ORIENTED_EDGE ( 'NONE', *, *, #828, .T. ) ;
#600 = DIRECTION ( 'NONE',  ( -0.9987365352540955588, -0.05025269294918076335, 0.000000000000000000 ) ) ;
#601 = ADVANCED_FACE ( 'NONE', ( #108 ), #1092, .F. ) ;
#602 = CARTESIAN_POINT ( 'NONE',  ( -8.728703347107833388E-14, -12.50000000000000000, 3.000000000000000000 ) ) ;
#603 = CYLINDRICAL_SURFACE ( 'NONE', #762, 24.99999999999999289 ) ;
#604 = ORIENTED_EDGE ( 'NONE', *, *, #671, .T. ) ;
#605 = CARTESIAN_POINT ( 'NONE',  ( 100.0000000000000000, 0.000000000000000000, -3.000000000000000000 ) ) ;
#606 = AXIS2_PLACEMENT_3D ( 'NONE', #805, #1003, #199 ) ;
#607 = CARTESIAN_POINT ( 'NONE',  ( -8.350000000000052935, -10.82531754730545792, 0.000000000000000000 ) ) ;
#608 = CARTESIAN_POINT ( 'NONE',  ( 100.0000000000000000, 0.000000000000000000, -3.000000000000000000 ) ) ;
#609 = APPROVAL_PERSON_ORGANIZATION ( #507, #237, #862 ) ;
#610 = ORIENTED_EDGE ( 'NONE', *, *, #289, .T. ) ;
#611 = DIRECTION ( 'NONE',  ( -0.000000000000000000, -0.000000000000000000, -1.000000000000000000 ) ) ;
#612 = DIRECTION ( 'NONE',  ( -0.000000000000000000, -0.000000000000000000, -1.000000000000000000 ) ) ;
#613 = DIRECTION ( 'NONE',  ( -0.000000000000000000, -0.000000000000000000, -1.000000000000000000 ) ) ;
#614 = EDGE_CURVE ( 'NONE', #227, #169, #155, .T. ) ;
#615 = ORIENTED_EDGE ( 'NONE', *, *, #533, .T. ) ;
#616 = CARTESIAN_POINT ( 'NONE',  ( -10.82531754730554496, -6.249999999999900524, 0.000000000000000000 ) ) ;
#617 = CARTESIAN_POINT ( 'NONE',  ( 10.40000000000000036, 0.000000000000000000, 3.000000000000000000 ) ) ;
#618 = EDGE_LOOP ( 'NONE', ( #709, #911 ) ) ;
#619 = DATE_AND_TIME ( #519, #867 ) ;
#620 = ADVANCED_FACE ( 'NONE', ( #467 ), #1082, .F. ) ;
#621 = ORIENTED_EDGE ( 'NONE', *, *, #653, .T. ) ;
#622 = CARTESIAN_POINT ( 'NONE',  ( -4.150000000000050981, -10.82531754730545792, 3.000000000000000000 ) ) ;
#623 = CIRCLE ( 'NONE', #436, 1.650000000000000355 ) ;
#624 = CIRCLE ( 'NONE', #281, 1.650000000000000133 ) ;
#625 = LINE ( 'NONE', #166, #172 ) ;
#626 = PLANE ( 'NONE',  #1059 ) ;
#627 = APPROVAL_STATUS ( 'not_yet_approved' ) ;
#628 = ORIENTED_EDGE ( 'NONE', *, *, #76, .T. ) ;
#629 = DIRECTION ( 'NONE',  ( -0.000000000000000000, -0.000000000000000000, -1.000000000000000000 ) ) ;
#630 = CARTESIAN_POINT ( 'NONE',  ( 24.99999999999999289, 3.061616997868382254E-15, 2.000000000000000000 ) ) ;
#631 = VECTOR ( 'NONE', #304, 1000.000000000000114 ) ;
#632 = AXIS2_PLACEMENT_3D ( 'NONE', #816, #809, #6 ) ;
#633 = VECTOR ( 'NONE', #1053, 1000.000000000000000 ) ;
#634 = CARTESIAN_POINT ( 'NONE',  ( 1.105559244881976877, -21.97220377559009918, -3.000000000000000000 ) ) ;
#635 = COORDINATED_UNIVERSAL_TIME_OFFSET ( 8, 0, .AHEAD. ) ;
#636 = AXIS2_PLACEMENT_3D ( 'NONE', #801, #319, #1026 ) ;
#637 = ORIENTED_EDGE ( 'NONE', *, *, #203, .F. ) ;
#638 = DIRECTION ( 'NONE',  ( 0.000000000000000000, 0.000000000000000000, 1.000000000000000000 ) ) ;
#639 = ADVANCED_FACE ( 'NONE', ( #559 ), #204, .F. ) ;
#640 = FACE_OUTER_BOUND ( 'NONE', #206, .T. ) ;
#641 = DIRECTION ( 'NONE',  ( -0.000000000000000000, -0.000000000000000000, -1.000000000000000000 ) ) ;
#642 = ORIENTED_EDGE ( 'NONE', *, *, #185, .T. ) ;
#643 = CARTESIAN_POINT ( 'NONE',  ( 10.82531754730545792, -6.250000000000052403, 0.000000000000000000 ) ) ;
#644 = AXIS2_PLACEMENT_3D ( 'NONE', #476, #1102, #1002 ) ;
#645 = CARTESIAN_POINT ( 'NONE',  ( 1.105559244881978653, 21.97220377559009563, -3.000000000000000000 ) ) ;
#646 = FACE_BOUND ( 'NONE', #951, .T. ) ;
#647 = ORIENTED_EDGE ( 'NONE', *, *, #952, .T. ) ;
#648 = FACE_OUTER_BOUND ( 'NONE', #342, .T. ) ;
#649 = CARTESIAN_POINT ( 'NONE',  ( 14.60000000000000142, 2.571758278209442450E-16, 3.000000000000000000 ) ) ;
#650 = FACE_BOUND ( 'NONE', #861, .T. ) ;
#651 = AXIS2_PLACEMENT_3D ( 'NONE', #608, #162, #439 ) ;
#652 = EDGE_LOOP ( 'NONE', ( #765, #615, #290, #1005 ) ) ;
#653 = EDGE_CURVE ( 'NONE', #589, #54, #24, .T. ) ;
#654 = DIRECTION ( 'NONE',  ( 1.000000000000000000, 0.000000000000000000, 0.000000000000000000 ) ) ;
#655 = DIRECTION ( 'NONE',  ( -0.000000000000000000, -0.000000000000000000, -1.000000000000000000 ) ) ;
#656 = DIRECTION ( 'NONE',  ( 1.000000000000000000, 0.000000000000000000, 0.000000000000000000 ) ) ;
#657 = ORIENTED_EDGE ( 'NONE', *, *, #659, .F. ) ;
#658 = DIRECTION ( 'NONE',  ( 0.000000000000000000, 0.000000000000000000, 1.000000000000000000 ) ) ;
#659 = EDGE_CURVE ( 'NONE', #300, #978, #554, .T. ) ;
#660 = CARTESIAN_POINT ( 'NONE',  ( 9.175317547305457566, -6.250000000000052403, 3.000000000000000000 ) ) ;
#661 = DIRECTION ( 'NONE',  ( 0.000000000000000000, 0.000000000000000000, 1.000000000000000000 ) ) ;
#662 = ORIENTED_EDGE ( 'NONE', *, *, #534, .T. ) ;
#663 = PLANE ( 'NONE',  #171 ) ;
#664 = AXIS2_PLACEMENT_3D ( 'NONE', #914, #363, #731 ) ;
#665 = CARTESIAN_POINT ( 'NONE',  ( 1.105559244881976877, -21.97220377559009918, -3.000000000000000000 ) ) ;
#666 = LOCAL_TIME ( 15, 12, 42.00000000000000000, #771 ) ;
#667 = CARTESIAN_POINT ( 'NONE',  ( 14.60000000000000142, 2.571758278209442450E-16, 0.000000000000000000 ) ) ;
#668 = ORIENTED_EDGE ( 'NONE', *, *, #389, .F. ) ;
#669 = PERSON_AND_ORGANIZATION_ROLE ( 'design_supplier' ) ;
#670 = ORIENTED_EDGE ( 'NONE', *, *, #282, .T. ) ;
#671 = EDGE_CURVE ( 'NONE', #1142, #973, #1071, .T. ) ;
#672 = CARTESIAN_POINT ( 'NONE',  ( 0.000000000000000000, 12.50000000000000000, 3.000000000000000000 ) ) ;
#673 = ORIENTED_EDGE ( 'NONE', *, *, #410, .F. ) ;
#674 = APPROVAL_ROLE ( '' ) ;
#675 = VERTEX_POINT ( 'NONE', #564 ) ;
#676 = CARTESIAN_POINT ( 'NONE',  ( -10.82531754730540996, 6.250000000000127010, 3.000000000000000000 ) ) ;
#677 = AXIS2_PLACEMENT_3D ( 'NONE', #432, #773, #783 ) ;
#678 = ORIENTED_EDGE ( 'NONE', *, *, #958, .T. ) ;
#679 = EDGE_LOOP ( 'NONE', ( #772, #944, #475, #941 ) ) ;
#680 = DIRECTION ( 'NONE',  ( -1.000000000000000000, 0.000000000000000000, 0.000000000000000000 ) ) ;
#681 = ORIENTED_EDGE ( 'NONE', *, *, #1007, .T. ) ;
#682 = CALENDAR_DATE ( 2026, 11, 6 ) ;
#683 = EDGE_CURVE ( 'NONE', #973, #597, #2, .T. ) ;
#684 = PRODUCT_DEFINITION_SHAPE ( 'NONE', 'NONE',  #896 ) ;
#685 = ORIENTED_EDGE ( 'NONE', *, *, #1012, .F. ) ;
#686 = DIRECTION ( 'NONE',  ( 0.000000000000000000, 0.000000000000000000, 1.000000000000000000 ) ) ;
#687 = AXIS2_PLACEMENT_3D ( 'NONE', #218, #311, #680 ) ;
#688 = AXIS2_PLACEMENT_3D ( 'NONE', #793, #95, #348 ) ;
#689 = AXIS2_PLACEMENT_3D ( 'NONE', #1048, #846, #957 ) ;
#690 = LINE ( 'NONE', #1044, #735 ) ;
#691 = VERTEX_POINT ( 'NONE', #630 ) ;
#692 = DIRECTION ( 'NONE',  ( 1.000000000000000000, 0.000000000000000000, 0.000000000000000000 ) ) ;
#693 = CC_DESIGN_PERSON_AND_ORGANIZATION_ASSIGNMENT ( #306, #669, ( #983 ) ) ;
#694 = ORIENTED_EDGE ( 'NONE', *, *, #459, .F. ) ;
#695 = FACE_OUTER_BOUND ( 'NONE', #679, .T. ) ;
#696 = DIRECTION ( 'NONE',  ( -0.000000000000000000, -0.000000000000000000, -1.000000000000000000 ) ) ;
#697 = VERTEX_POINT ( 'NONE', #190 ) ;
#698 = ORIENTED_EDGE ( 'NONE', *, *, #359, .T. ) ;
#699 = LINE ( 'NONE', #759, #484 ) ;
#700 = EDGE_CURVE ( 'NONE', #551, #843, #208, .T. ) ;
#701 = DIRECTION ( 'NONE',  ( -0.000000000000000000, -0.000000000000000000, 1.000000000000000000 ) ) ;
#702 = DIRECTION ( 'NONE',  ( 1.000000000000000000, 0.000000000000000000, -0.000000000000000000 ) ) ;
#703 = PERSON_AND_ORGANIZATION ( #400, #591 ) ;
#704 = ORIENTED_EDGE ( 'NONE', *, *, #807, .T. ) ;
#705 = FACE_OUTER_BOUND ( 'NONE', #876, .T. ) ;
#706 = AXIS2_PLACEMENT_3D ( 'NONE', #1157, #336, #893 ) ;
#707 = DIRECTION ( 'NONE',  ( -0.000000000000000000, -0.000000000000000000, -1.000000000000000000 ) ) ;
#708 = EDGE_CURVE ( 'NONE', #593, #697, #1087, .T. ) ;
#709 = ORIENTED_EDGE ( 'NONE', *, *, #289, .F. ) ;
#710 = ORIENTED_EDGE ( 'NONE', *, *, #210, .T. ) ;
#711 = CARTESIAN_POINT ( 'NONE',  ( 10.40000000000000036, 0.000000000000000000, 0.000000000000000000 ) ) ;
#712 = DIRECTION ( 'NONE',  ( -1.000000000000000000, 0.000000000000000000, 0.000000000000000000 ) ) ;
#713 = CARTESIAN_POINT ( 'NONE',  ( 99.92763441975104399, 16.99984597644329654, -3.000000000000000000 ) ) ;
#714 = EDGE_LOOP ( 'NONE', ( #434, #27 ) ) ;
#715 = EDGE_CURVE ( 'NONE', #949, #868, #325, .T. ) ;
#716 = CARTESIAN_POINT ( 'NONE',  ( 1.256317323729521096, 24.96841338135238075, 3.000000000000000000 ) ) ;
#717 = CARTESIAN_POINT ( 'NONE',  ( -4.150000000000050981, -10.82531754730545792, 3.000000000000000000 ) ) ;
#718 = VECTOR ( 'NONE', #1072, 1000.000000000000000 ) ;
#719 = CARTESIAN_POINT ( 'NONE',  ( 0.000000000000000000, 0.000000000000000000, 2.000000000000000000 ) ) ;
#720 = AXIS2_PLACEMENT_3D ( 'NONE', #1083, #121, #732 ) ;
#721 = EDGE_LOOP ( 'NONE', ( #662, #710, #729, #967, #464 ) ) ;
#722 = CARTESIAN_POINT ( 'NONE',  ( -12.47531754730554354, -6.249999999999900524, 3.000000000000000000 ) ) ;
#723 = ADVANCED_FACE ( 'NONE', ( #1013 ), #251, .F. ) ;
#724 = DIRECTION ( 'NONE',  ( 1.000000000000000000, 0.000000000000000000, 0.000000000000000000 ) ) ;
#725 = CIRCLE ( 'NONE', #215, 1.650000000000000133 ) ;
#726 = CIRCLE ( 'NONE', #537, 1.650000000000000355 ) ;
#727 = FACE_OUTER_BOUND ( 'NONE', #1024, .T. ) ;
#728 = CIRCLE ( 'NONE', #782, 17.00000000000000000 ) ;
#729 = ORIENTED_EDGE ( 'NONE', *, *, #119, .T. ) ;
#730 = CARTESIAN_POINT ( 'NONE',  ( -1.650000000000000133, 12.50000000000000000, 3.000000000000000000 ) ) ;
#731 = DIRECTION ( 'NONE',  ( 1.000000000000000000, 0.000000000000000000, 0.000000000000000000 ) ) ;
#732 = DIRECTION ( 'NONE',  ( -1.000000000000000000, 0.000000000000000000, 0.000000000000000000 ) ) ;
#733 = ORIENTED_EDGE ( 'NONE', *, *, #906, .F. ) ;
#734 = FACE_OUTER_BOUND ( 'NONE', #1100, .T. ) ;
#735 = VECTOR ( 'NONE', #241, 1000.000000000000227 ) ;
#736 = PLANE ( 'NONE',  #396 ) ;
#737 = EDGE_CURVE ( 'NONE', #223, #593, #1039, .T. ) ;
#738 = DIRECTION ( 'NONE',  ( 1.000000000000000000, 0.000000000000000000, 0.000000000000000000 ) ) ;
#739 = ORIENTED_EDGE ( 'NONE', *, *, #752, .F. ) ;
#740 = CARTESIAN_POINT ( 'NONE',  ( 12.50000000000000000, 0.000000000000000000, 3.000000000000000000 ) ) ;
#741 = DIRECTION ( 'NONE',  ( -1.000000000000000000, 0.000000000000000000, 0.000000000000000000 ) ) ;
#742 = APPROVAL ( #627, 'æœª' ) ;
#743 = LINE ( 'NONE', #634, #8 ) ;
#744 = VECTOR ( 'NONE', #421, 1000.000000000000000 ) ;
#745 = EDGE_CURVE ( 'NONE', #593, #61, #699, .T. ) ;
#746 = EDGE_LOOP ( 'NONE', ( #382, #637, #1127, #433, #22 ) ) ;
#747 = DIRECTION ( 'NONE',  ( 0.000000000000000000, 0.000000000000000000, 1.000000000000000000 ) ) ;
#748 = DIRECTION ( 'NONE',  ( 0.000000000000000000, 0.000000000000000000, 1.000000000000000000 ) ) ;
#749 = CARTESIAN_POINT ( 'NONE',  ( 12.47531754730545828, -6.250000000000052403, 3.000000000000000000 ) ) ;
#750 = ORIENTED_EDGE ( 'NONE', *, *, #302, .T. ) ;
#751 = CYLINDRICAL_SURFACE ( 'NONE', #526, 2.100000000000000977 ) ;
#752 = EDGE_CURVE ( 'NONE', #1090, #164, #753, .T. ) ;
#753 = LINE ( 'NONE', #31, #744 ) ;
#754 = CARTESIAN_POINT ( 'NONE',  ( 0.000000000000000000, 12.50000000000000000, 0.000000000000000000 ) ) ;
#755 = ORIENTED_EDGE ( 'NONE', *, *, #47, .F. ) ;
#756 = CARTESIAN_POINT ( 'NONE',  ( -12.47531754730541032, 6.250000000000127010, 3.000000000000000000 ) ) ;
#757 = ORIENTED_EDGE ( 'NONE', *, *, #891, .T. ) ;
#758 = EDGE_CURVE ( 'NONE', #238, #1064, #445, .T. ) ;
#759 = CARTESIAN_POINT ( 'NONE',  ( 1.105559244881976433, 21.97220377559009563, -3.000000000000000000 ) ) ;
#760 = CARTESIAN_POINT ( 'NONE',  ( -24.99999999999999289, 0.000000000000000000, -3.000000000000000000 ) ) ;
#761 = ORIENTED_EDGE ( 'NONE', *, *, #844, .T. ) ;
#762 = AXIS2_PLACEMENT_3D ( 'NONE', #539, #613, #806 ) ;
#763 = EDGE_LOOP ( 'NONE', ( #968, #140 ) ) ;
#764 = LINE ( 'NONE', #1021, #536 ) ;
#765 = ORIENTED_EDGE ( 'NONE', *, *, #653, .F. ) ;
#766 = FACE_OUTER_BOUND ( 'NONE', #492, .T. ) ;
#767 = ORIENTED_EDGE ( 'NONE', *, *, #91, .F. ) ;
#768 = CARTESIAN_POINT ( 'NONE',  ( -10.82531754730540996, 6.250000000000127010, 3.000000000000000000 ) ) ;
#769 = EDGE_CURVE ( 'NONE', #1064, #238, #328, .T. ) ;
#770 = EDGE_LOOP ( 'NONE', ( #1030, #130, #1001, #420 ) ) ;
#771 = COORDINATED_UNIVERSAL_TIME_OFFSET ( 8, 0, .AHEAD. ) ;
#772 = ORIENTED_EDGE ( 'NONE', *, *, #76, .F. ) ;
#773 = DIRECTION ( 'NONE',  ( 0.000000000000000000, 0.000000000000000000, -1.000000000000000000 ) ) ;
#774 = APPROVAL_PERSON_ORGANIZATION ( #498, #355, #674 ) ;
#775 = VERTEX_POINT ( 'NONE', #477 ) ;
#776 = ADVANCED_FACE ( 'NONE', ( #70 ), #577, .F. ) ;
#777 = COORDINATED_UNIVERSAL_TIME_OFFSET ( 8, 0, .AHEAD. ) ;
#778 = ORIENTED_EDGE ( 'NONE', *, *, #715, .T. ) ;
#779 = CARTESIAN_POINT ( 'NONE',  ( 0.000000000000000000, 0.000000000000000000, 3.000000000000000000 ) ) ;
#780 = CIRCLE ( 'NONE', #872, 1.650000000000000133 ) ;
#781 = CIRCLE ( 'NONE', #385, 1.650000000000000355 ) ;
#782 = AXIS2_PLACEMENT_3D ( 'NONE', #187, #543, #898 ) ;
#783 = DIRECTION ( 'NONE',  ( -1.000000000000000000, 0.000000000000000000, 0.000000000000000000 ) ) ;
#784 = ORIENTED_EDGE ( 'NONE', *, *, #429, .F. ) ;
#785 = PERSON_AND_ORGANIZATION_ROLE ( 'classification_officer' ) ;
#786 = ORIENTED_EDGE ( 'NONE', *, *, #98, .T. ) ;
#787 = CARTESIAN_POINT ( 'NONE',  ( 1.256317323729507329, -24.96841338135238431, 3.000000000000000000 ) ) ;
#788 = ADVANCED_FACE ( 'NONE', ( #239 ), #209, .T. ) ;
#789 = CARTESIAN_POINT ( 'NONE',  ( -4.149999999999900879, 10.82531754730554496, 3.000000000000000000 ) ) ;
#790 = VECTOR ( 'NONE', #315, 1000.000000000000000 ) ;
#791 = VERTEX_POINT ( 'NONE', #660 ) ;
#792 = ORIENTED_EDGE ( 'NONE', *, *, #494, .T. ) ;
#793 = CARTESIAN_POINT ( 'NONE',  ( 10.82531754730545792, -6.250000000000052403, 3.000000000000000000 ) ) ;
#794 = EDGE_CURVE ( 'NONE', #1094, #360, #152, .T. ) ;
#795 = DIRECTION ( 'NONE',  ( -1.000000000000000000, 0.000000000000000000, 0.000000000000000000 ) ) ;
#796 = ORIENTED_EDGE ( 'NONE', *, *, #351, .T. ) ;
#797 = EDGE_LOOP ( 'NONE', ( #996, #670, #698, #580 ) ) ;
#798 = DIRECTION ( 'NONE',  ( -0.000000000000000000, -0.000000000000000000, -1.000000000000000000 ) ) ;
#799 = DIRECTION ( 'NONE',  ( 1.000000000000000000, 0.000000000000000000, 0.000000000000000000 ) ) ;
#800 = ADVANCED_FACE ( 'NONE', ( #918 ), #509, .F. ) ;
#801 = CARTESIAN_POINT ( 'NONE',  ( -6.250000000000052403, -10.82531754730545792, 0.000000000000000000 ) ) ;
#802 = DATE_AND_TIME ( #1075, #419 ) ;
#803 = ORIENTED_EDGE ( 'NONE', *, *, #550, .F. ) ;
#804 = DIRECTION ( 'NONE',  ( 1.000000000000000000, 0.000000000000000000, 0.000000000000000000 ) ) ;
#805 = CARTESIAN_POINT ( 'NONE',  ( 100.0000000000000000, 0.000000000000000000, -3.000000000000000000 ) ) ;
#806 = DIRECTION ( 'NONE',  ( -1.000000000000000000, 0.000000000000000000, 0.000000000000000000 ) ) ;
#807 = EDGE_CURVE ( 'NONE', #1010, #480, #781, .T. ) ;
#808 = ORIENTED_EDGE ( 'NONE', *, *, #844, .F. ) ;
#809 = DIRECTION ( 'NONE',  ( 0.000000000000000000, 0.000000000000000000, 1.000000000000000000 ) ) ;
#810 = DIRECTION ( 'NONE',  ( -0.000000000000000000, -0.000000000000000000, -1.000000000000000000 ) ) ;
#811 = AXIS2_PLACEMENT_3D ( 'NONE', #369, #471, #994 ) ;
#812 = ADVANCED_FACE ( 'NONE', ( #695 ), #1144, .F. ) ;
#813 = CARTESIAN_POINT ( 'NONE',  ( 1.256317323729510216, 24.96841338135238431, -3.000000000000000000 ) ) ;
#814 = AXIS2_PLACEMENT_3D ( 'NONE', #479, #288, #364 ) ;
#815 = ORIENTED_EDGE ( 'NONE', *, *, #466, .F. ) ;
#816 = CARTESIAN_POINT ( 'NONE',  ( 0.000000000000000000, 12.50000000000000000, 3.000000000000000000 ) ) ;
#817 = DIRECTION ( 'NONE',  ( 1.000000000000000000, 0.000000000000000000, 0.000000000000000000 ) ) ;
#818 = DIRECTION ( 'NONE',  ( 0.000000000000000000, 0.000000000000000000, 1.000000000000000000 ) ) ;
#819 = EDGE_LOOP ( 'NONE', ( #409, #916 ) ) ;
#820 = DIRECTION ( 'NONE',  ( -1.000000000000000000, 0.000000000000000000, 0.000000000000000000 ) ) ;
#821 = EDGE_CURVE ( 'NONE', #244, #403, #424, .T. ) ;
#822 = CYLINDRICAL_SURFACE ( 'NONE', #964, 24.99999999999999289 ) ;
#823 = DIRECTION ( 'NONE',  ( -0.000000000000000000, -0.000000000000000000, -1.000000000000000000 ) ) ;
#824 = VERTEX_POINT ( 'NONE', #303 ) ;
#825 = FACE_OUTER_BOUND ( 'NONE', #258, .T. ) ;
#826 = AXIS2_PLACEMENT_3D ( 'NONE', #931, #390, #197 ) ;
#827 = AXIS2_PLACEMENT_3D ( 'NONE', #335, #444, #63 ) ;
#828 = EDGE_CURVE ( 'NONE', #949, #307, #594, .T. ) ;
#829 = CARTESIAN_POINT ( 'NONE',  ( 0.000000000000000000, 0.000000000000000000, 3.000000000000000000 ) ) ;
#830 = CARTESIAN_POINT ( 'NONE',  ( 99.92763441975104399, -16.99984597644330009, -3.000000000000000000 ) ) ;
#831 = ORIENTED_EDGE ( 'NONE', *, *, #297, .T. ) ;
#832 = DIRECTION ( 'NONE',  ( 1.000000000000000000, 0.000000000000000000, 0.000000000000000000 ) ) ;
#833 = CARTESIAN_POINT ( 'NONE',  ( -10.82531754730554496, -6.249999999999900524, 3.000000000000000000 ) ) ;
#834 = CIRCLE ( 'NONE', #1078, 1.650000000000000133 ) ;
#835 = AXIS2_PLACEMENT_3D ( 'NONE', #895, #1148, #804 ) ;
#836 = FACE_BOUND ( 'NONE', #219, .T. ) ;
#837 = AXIS2_PLACEMENT_3D ( 'NONE', #779, #686, #933 ) ;
#838 = EDGE_CURVE ( 'NONE', #592, #497, #182, .T. ) ;
#839 = VERTEX_POINT ( 'NONE', #485 ) ;
#840 = FACE_BOUND ( 'NONE', #746, .T. ) ;
#841 = DIRECTION ( 'NONE',  ( 0.000000000000000000, 0.000000000000000000, 1.000000000000000000 ) ) ;
#842 = DIRECTION ( 'NONE',  ( 0.000000000000000000, 0.000000000000000000, 1.000000000000000000 ) ) ;
#843 = VERTEX_POINT ( 'NONE', #1019 ) ;
#844 = EDGE_CURVE ( 'NONE', #378, #868, #927, .T. ) ;
#845 = DIRECTION ( 'NONE',  ( 1.000000000000000000, 0.000000000000000000, 0.000000000000000000 ) ) ;
#846 = DIRECTION ( 'NONE',  ( -0.000000000000000000, -0.000000000000000000, -1.000000000000000000 ) ) ;
#847 = DIRECTION ( 'NONE',  ( -1.000000000000000000, 0.000000000000000000, 0.000000000000000000 ) ) ;
#848 = VERTEX_POINT ( 'NONE', #969 ) ;
#849 = CARTESIAN_POINT ( 'NONE',  ( 99.92763441975104399, -16.99984597644330009, -3.000000000000000000 ) ) ;
#850 = ORIENTED_EDGE ( 'NONE', *, *, #579, .T. ) ;
#851 = DIRECTION ( 'NONE',  ( 1.000000000000000000, 0.000000000000000000, 0.000000000000000000 ) ) ;
#852 = EDGE_LOOP ( 'NONE', ( #1058, #792, #755, #803 ) ) ;
#853 = CARTESIAN_POINT ( 'NONE',  ( -4.149999999999900879, 10.82531754730554496, 3.000000000000000000 ) ) ;
#854 = ORIENTED_EDGE ( 'NONE', *, *, #925, .F. ) ;
#855 = EDGE_CURVE ( 'NONE', #868, #378, #327, .T. ) ;
#856 = FACE_OUTER_BOUND ( 'NONE', #770, .T. ) ;
#857 = VERTEX_POINT ( 'NONE', #711 ) ;
#858 = ORIENTED_EDGE ( 'NONE', *, *, #459, .T. ) ;
#859 = EDGE_CURVE ( 'NONE', #1147, #346, #423, .T. ) ;
#860 = CARTESIAN_POINT ( 'NONE',  ( 1.650000000000000133, 12.50000000000000000, 3.000000000000000000 ) ) ;
#861 = EDGE_LOOP ( 'NONE', ( #503, #123 ) ) ;
#862 = APPROVAL_ROLE ( '' ) ;
#863 = EDGE_LOOP ( 'NONE', ( #888, #1121 ) ) ;
#864 = DIRECTION ( 'NONE',  ( -0.000000000000000000, -0.000000000000000000, -1.000000000000000000 ) ) ;
#865 = AXIS2_PLACEMENT_3D ( 'NONE', #547, #462, #817 ) ;
#866 = CYLINDRICAL_SURFACE ( 'NONE', #317, 1.650000000000000133 ) ;
#867 = LOCAL_TIME ( 15, 12, 42.00000000000000000, #635 ) ;
#868 = VERTEX_POINT ( 'NONE', #448 ) ;
#869 = EDGE_CURVE ( 'NONE', #518, #839, #987, .T. ) ;
#870 = ORIENTED_EDGE ( 'NONE', *, *, #877, .F. ) ;
#871 = DIRECTION ( 'NONE',  ( -1.000000000000000000, 0.000000000000000000, 0.000000000000000000 ) ) ;
#872 = AXIS2_PLACEMENT_3D ( 'NONE', #672, #934, #851 ) ;
#873 = AXIS2_PLACEMENT_3D ( 'NONE', #83, #638, #89 ) ;
#874 = CIRCLE ( 'NONE', #636, 2.100000000000000977 ) ;
#875 = FACE_OUTER_BOUND ( 'NONE', #295, .T. ) ;
#876 = EDGE_LOOP ( 'NONE', ( #117, #628, #183, #99 ) ) ;
#877 = EDGE_CURVE ( 'NONE', #1147, #232, #177, .T. ) ;
#878 = VERTEX_POINT ( 'NONE', #460 ) ;
#879 = DIRECTION ( 'NONE',  ( -0.000000000000000000, -0.000000000000000000, 1.000000000000000000 ) ) ;
#880 = CARTESIAN_POINT ( 'NONE',  ( -8.349999999999898392, 10.82531754730554496, 3.000000000000000000 ) ) ;
#881 = AXIS2_PLACEMENT_3D ( 'NONE', #922, #28, #845 ) ;
#882 = ORIENTED_EDGE ( 'NONE', *, *, #389, .T. ) ;
#883 = VECTOR ( 'NONE', #154, 1000.000000000000000 ) ;
#884 = VERTEX_POINT ( 'NONE', #75 ) ;
#885 = CARTESIAN_POINT ( 'NONE',  ( 10.82531754730545792, -6.250000000000052403, 3.000000000000000000 ) ) ;
#886 = DIRECTION ( 'NONE',  ( 0.000000000000000000, 0.000000000000000000, 1.000000000000000000 ) ) ;
#887 = ORIENTED_EDGE ( 'NONE', *, *, #217, .T. ) ;
#888 = ORIENTED_EDGE ( 'NONE', *, *, #1049, .T. ) ;
#889 = LINE ( 'NONE', #361, #576 ) ;
#890 = AXIS2_PLACEMENT_3D ( 'NONE', #532, #1065, #259 ) ;
#891 = EDGE_CURVE ( 'NONE', #1064, #691, #541, .T. ) ;
#892 = DIRECTION ( 'NONE',  ( 0.000000000000000000, 0.000000000000000000, -1.000000000000000000 ) ) ;
#893 = DIRECTION ( 'NONE',  ( 1.000000000000000000, 0.000000000000000000, 0.000000000000000000 ) ) ;
#894 = ORIENTED_EDGE ( 'NONE', *, *, #758, .T. ) ;
#895 = CARTESIAN_POINT ( 'NONE',  ( -10.82531754730554496, -6.249999999999900524, 0.000000000000000000 ) ) ;
#896 = PRODUCT_DEFINITION ( 'æœ', '', #983, #548 ) ;
#897 = CARTESIAN_POINT ( 'NONE',  ( 100.0000000000000000, 20.00000000000000000, 3.000000000000000000 ) ) ;
#898 = DIRECTION ( 'NONE',  ( -1.000000000000000000, 0.000000000000000000, 0.000000000000000000 ) ) ;
#899 = VERTEX_POINT ( 'NONE', #1 ) ;
#900 = DIRECTION ( 'NONE',  ( 1.000000000000000000, 0.000000000000000000, 0.000000000000000000 ) ) ;
#901 = DIRECTION ( 'NONE',  ( 0.9987365352540955588, -0.05025269294918079804, 0.000000000000000000 ) ) ;
#902 = VECTOR ( 'NONE', #542, 1000.000000000000000 ) ;
#903 = FACE_BOUND ( 'NONE', #763, .T. ) ;
#904 = CIRCLE ( 'NONE', #399, 2.100000000000000977 ) ;
#905 = ORIENTED_EDGE ( 'NONE', *, *, #410, .T. ) ;
#906 = EDGE_CURVE ( 'NONE', #675, #899, #483, .T. ) ;
#907 = FACE_OUTER_BOUND ( 'NONE', #458, .T. ) ;
#908 = DIRECTION ( 'NONE',  ( 0.000000000000000000, 0.000000000000000000, 1.000000000000000000 ) ) ;
#909 = DIRECTION ( 'NONE',  ( 1.000000000000000000, 0.000000000000000000, -0.000000000000000000 ) ) ;
#910 = CC_DESIGN_DATE_AND_TIME_ASSIGNMENT ( #236, #150, ( #896 ) ) ;
#911 = ORIENTED_EDGE ( 'NONE', *, *, #533, .F. ) ;
#912 = LINE ( 'NONE', #296, #115 ) ;
#913 = EDGE_CURVE ( 'NONE', #1136, #824, #1038, .T. ) ;
#914 = CARTESIAN_POINT ( 'NONE',  ( 0.000000000000000000, 0.000000000000000000, -3.000000000000000000 ) ) ;
#915 = CYLINDRICAL_SURFACE ( 'NONE', #720, 1.650000000000000355 ) ;
#916 = ORIENTED_EDGE ( 'NONE', *, *, #339, .T. ) ;
#917 = DIRECTION ( 'NONE',  ( -0.000000000000000000, -0.000000000000000000, -1.000000000000000000 ) ) ;
#918 = FACE_OUTER_BOUND ( 'NONE', #221, .T. ) ;
#919 = EDGE_CURVE ( 'NONE', #899, #16, #889, .T. ) ;
#920 = LINE ( 'NONE', #1009, #68 ) ;
#921 = EDGE_LOOP ( 'NONE', ( #341, #831, #1153, #870 ) ) ;
#922 = CARTESIAN_POINT ( 'NONE',  ( 10.82531754730545792, -6.250000000000052403, 0.000000000000000000 ) ) ;
#923 = SECURITY_CLASSIFICATION ( '', '', #73 ) ;
#924 = CARTESIAN_POINT ( 'NONE',  ( 12.50000000000000000, 0.000000000000000000, 3.000000000000000000 ) ) ;
#925 = EDGE_CURVE ( 'NONE', #775, #403, #993, .T. ) ;
#926 = AXIS2_PLACEMENT_3D ( 'NONE', #406, #842, #505 ) ;
#927 = CIRCLE ( 'NONE', #835, 1.649999999999998579 ) ;
#928 = CARTESIAN_POINT ( 'NONE',  ( 1.105559244881976877, -21.97220377559009918, 0.000000000000000000 ) ) ;
#929 = AXIS2_PLACEMENT_3D ( 'NONE', #1131, #1140, #333 ) ;
#930 = ORIENTED_EDGE ( 'NONE', *, *, #708, .T. ) ;
#932 = AXIS2_PLACEMENT_3D ( 'NONE', #43, #53, #411 ) ;
#931 = CARTESIAN_POINT ( 'NONE',  ( -8.728703347107833388E-14, -12.50000000000000000, 3.000000000000000000 ) ) ;
#933 = DIRECTION ( 'NONE',  ( 1.000000000000000000, 0.000000000000000000, 0.000000000000000000 ) ) ;
#934 = DIRECTION ( 'NONE',  ( 0.000000000000000000, 0.000000000000000000, 1.000000000000000000 ) ) ;
#935 = ORIENTED_EDGE ( 'NONE', *, *, #550, .T. ) ;
#936 = DIRECTION ( 'NONE',  ( 0.000000000000000000, 0.000000000000000000, 1.000000000000000000 ) ) ;
#937 = ORIENTED_EDGE ( 'NONE', *, *, #1138, .F. ) ;
#938 = CIRCLE ( 'NONE', #20, 1.650000000000000355 ) ;
#939 = AXIS2_PLACEMENT_3D ( 'NONE', #529, #886, #85 ) ;
#940 = CARTESIAN_POINT ( 'NONE',  ( 10.82531754730549878, 6.249999999999975131, 3.000000000000000000 ) ) ;
#941 = ORIENTED_EDGE ( 'NONE', *, *, #913, .F. ) ;
#942 = CARTESIAN_POINT ( 'NONE',  ( -8.350000000000052935, -10.82531754730545792, 3.000000000000000000 ) ) ;
#943 = ADVANCED_FACE ( 'NONE', ( #165 ), #441, .F. ) ;
#944 = ORIENTED_EDGE ( 'NONE', *, *, #614, .T. ) ;
#945 = LOCAL_TIME ( 15, 12, 42.00000000000000000, #777 ) ;
#946 = UNCERTAINTY_MEASURE_WITH_UNIT (LENGTH_MEASURE( 1.000000000000000082E-05 ), #408, 'distance_accuracy_value', 'NONE');
#947 = DIRECTION ( 'NONE',  ( 1.000000000000000000, 0.000000000000000000, 0.000000000000000000 ) ) ;
#948 = AXIS2_PLACEMENT_3D ( 'NONE', #605, #963, #37 ) ;
#949 = VERTEX_POINT ( 'NONE', #722 ) ;
#950 = APPROVAL_STATUS ( 'not_yet_approved' ) ;
#951 = EDGE_LOOP ( 'NONE', ( #573, #272 ) ) ;
#952 = EDGE_CURVE ( 'NONE', #791, #884, #1077, .T. ) ;
#953 = DIRECTION ( 'NONE',  ( 0.000000000000000000, 0.000000000000000000, 1.000000000000000000 ) ) ;
#954 = ORIENTED_EDGE ( 'NONE', *, *, #913, .T. ) ;
#955 = CALENDAR_DATE ( 2026, 11, 6 ) ;
#956 = ORIENTED_EDGE ( 'NONE', *, *, #855, .T. ) ;
#957 = DIRECTION ( 'NONE',  ( -1.000000000000000000, 0.000000000000000000, 0.000000000000000000 ) ) ;
#958 = EDGE_CURVE ( 'NONE', #791, #300, #726, .T. ) ;
#959 = LINE ( 'NONE', #269, #376 ) ;
#960 = DIRECTION ( 'NONE',  ( 0.000000000000000000, 0.000000000000000000, 1.000000000000000000 ) ) ;
#961 = MANIFOLD_SOLID_BREP ( '\X2\51f853f0\X0\-\X2\62c94f38\X0\2', #48 ) ;
#962 = ORIENTED_EDGE ( 'NONE', *, *, #715, .F. ) ;
#963 = DIRECTION ( 'NONE',  ( -0.000000000000000000, -0.000000000000000000, 1.000000000000000000 ) ) ;
#964 = AXIS2_PLACEMENT_3D ( 'NONE', #829, #274, #990 ) ;
#965 = DIRECTION ( 'NONE',  ( 0.000000000000000000, 0.000000000000000000, 1.000000000000000000 ) ) ;
#966 = ADVANCED_FACE ( 'NONE', ( #705 ), #546, .F. ) ;
#967 = ORIENTED_EDGE ( 'NONE', *, *, #478, .T. ) ;
#968 = ORIENTED_EDGE ( 'NONE', *, *, #147, .F. ) ;
#969 = CARTESIAN_POINT ( 'NONE',  ( -1.650000000000087619, -12.50000000000000000, 3.000000000000000000 ) ) ;
#970 = CARTESIAN_POINT ( 'NONE',  ( 100.0000000000000000, -20.00000000000000000, 2.000000000000000000 ) ) ;
#971 = CC_DESIGN_PERSON_AND_ORGANIZATION_ASSIGNMENT ( #703, #785, ( #923 ) ) ;
#972 = CARTESIAN_POINT ( 'NONE',  ( 117.0000000000000000, 0.000000000000000000, -3.000000000000000000 ) ) ;
#973 = VERTEX_POINT ( 'NONE', #622 ) ;
#974 = DIRECTION ( 'NONE',  ( 0.000000000000000000, 0.000000000000000000, 1.000000000000000000 ) ) ;
#975 = DIRECTION ( 'NONE',  ( -0.000000000000000000, -0.000000000000000000, -1.000000000000000000 ) ) ;
#976 = EDGE_LOOP ( 'NONE', ( #694, #514, #887, #981 ) ) ;
#977 = VECTOR ( 'NONE', #264, 1000.000000000000227 ) ;
#978 = VERTEX_POINT ( 'NONE', #100 ) ;
#979 = FACE_OUTER_BOUND ( 'NONE', #144, .T. ) ;
#980 = LINE ( 'NONE', #329, #437 ) ;
#981 = ORIENTED_EDGE ( 'NONE', *, *, #302, .F. ) ;
#982 = SHAPE_DEFINITION_REPRESENTATION ( #684, #81 ) ;
#983 = PRODUCT_DEFINITION_FORMATION_WITH_SPECIFIED_SOURCE ( 'ä»', '', #313, .NOT_KNOWN. ) ;
#984 = ORIENTED_EDGE ( 'NONE', *, *, #683, .T. ) ;
#985 = CARTESIAN_POINT ( 'NONE',  ( 100.0000000000000000, 0.000000000000000000, -3.000000000000000000 ) ) ;
#986 = CC_DESIGN_DATE_AND_TIME_ASSIGNMENT ( #802, #544, ( #923 ) ) ;
#987 = CIRCLE ( 'NONE', #890, 2.099999999999999645 ) ;
#988 = AXIS2_PLACEMENT_3D ( 'NONE', #1107, #1043, #245 ) ;
#989 = ADVANCED_FACE ( 'NONE', ( #979 ), #11, .F. ) ;
#990 = DIRECTION ( 'NONE',  ( -1.000000000000000000, 0.000000000000000000, 0.000000000000000000 ) ) ;
#991 = CARTESIAN_POINT ( 'NONE',  ( 117.0000000000000000, 0.000000000000000000, -3.000000000000000000 ) ) ;
#992 = EDGE_LOOP ( 'NONE', ( #352, #506 ) ) ;
#993 = LINE ( 'NONE', #716, #65 ) ;
#994 = DIRECTION ( 'NONE',  ( -1.000000000000000000, 0.000000000000000000, 0.000000000000000000 ) ) ;
#995 = DIRECTION ( 'NONE',  ( 0.000000000000000000, 0.000000000000000000, 1.000000000000000000 ) ) ;
#996 = ORIENTED_EDGE ( 'NONE', *, *, #683, .F. ) ;
#997 = CYLINDRICAL_SURFACE ( 'NONE', #826, 1.650000000000000133 ) ;
#998 = CARTESIAN_POINT ( 'NONE',  ( 12.50000000000000000, 0.000000000000000000, 3.000000000000000000 ) ) ;
#999 = CARTESIAN_POINT ( 'NONE',  ( -6.250000000000052403, -10.82531754730545792, 0.000000000000000000 ) ) ;
#1000 = EDGE_CURVE ( 'NONE', #504, #1143, #280, .T. ) ;
#1001 = ORIENTED_EDGE ( 'NONE', *, *, #752, .T. ) ;
#1002 = DIRECTION ( 'NONE',  ( -1.000000000000000000, 0.000000000000000000, -0.000000000000000000 ) ) ;
#1003 = DIRECTION ( 'NONE',  ( 0.000000000000000000, 0.000000000000000000, -1.000000000000000000 ) ) ;
#1004 = DIRECTION ( 'NONE',  ( 1.000000000000000000, 0.000000000000000000, 0.000000000000000000 ) ) ;
#1005 = ORIENTED_EDGE ( 'NONE', *, *, #5, .F. ) ;
#1006 = CARTESIAN_POINT ( 'NONE',  ( 9.175317547305498422, 6.249999999999975131, 0.000000000000000000 ) ) ;
#1007 = EDGE_CURVE ( 'NONE', #480, #1010, #938, .T. ) ;
#1008 = DIRECTION ( 'NONE',  ( 1.000000000000000000, 0.000000000000000000, 0.000000000000000000 ) ) ;
#1009 = CARTESIAN_POINT ( 'NONE',  ( -8.349999999999898392, 10.82531754730554496, 3.000000000000000000 ) ) ;
#1010 = VERTEX_POINT ( 'NONE', #1006 ) ;
#1011 = DIRECTION ( 'NONE',  ( -1.000000000000000000, 0.000000000000000000, 0.000000000000000000 ) ) ;
#1012 = EDGE_CURVE ( 'NONE', #884, #978, #623, .T. ) ;
#1013 = FACE_OUTER_BOUND ( 'NONE', #557, .T. ) ;
#1014 = DIRECTION ( 'NONE',  ( 1.000000000000000000, 0.000000000000000000, 0.000000000000000000 ) ) ;
#1015 = VECTOR ( 'NONE', #62, 1000.000000000000000 ) ;
#1016 = ORIENTED_EDGE ( 'NONE', *, *, #1119, .T. ) ;
#1017 = FACE_BOUND ( 'NONE', #1042, .T. ) ;
#1018 = AXIS2_PLACEMENT_3D ( 'NONE', #456, #109, #1004 ) ;
#1019 = CARTESIAN_POINT ( 'NONE',  ( 12.47531754730549913, 6.249999999999975131, 3.000000000000000000 ) ) ;
#1020 = VECTOR ( 'NONE', #133, 1000.000000000000000 ) ;
#1021 = CARTESIAN_POINT ( 'NONE',  ( -8.350000000000052935, -10.82531754730545792, 3.000000000000000000 ) ) ;
#1022 = ORIENTED_EDGE ( 'NONE', *, *, #869, .F. ) ;
#1023 = DIRECTION ( 'NONE',  ( -1.000000000000000000, 0.000000000000000000, 0.000000000000000000 ) ) ;
#1024 = EDGE_LOOP ( 'NONE', ( #657, #1076, #647, #86 ) ) ;
#1025 = APPLICATION_CONTEXT ( 'configuration controlled 3d designs of mechanical parts and assemblies' ) ;
#1026 = DIRECTION ( 'NONE',  ( 1.000000000000000000, 0.000000000000000000, 0.000000000000000000 ) ) ;
#1027 = EDGE_CURVE ( 'NONE', #978, #884, #1124, .T. ) ;
#1028 = VERTEX_POINT ( 'NONE', #17 ) ;
#1029 = DATE_AND_TIME ( #955, #666 ) ;
#1030 = ORIENTED_EDGE ( 'NONE', *, *, #1119, .F. ) ;
#1031 = AXIS2_PLACEMENT_3D ( 'NONE', #740, #1095, #291 ) ;
#1032 = CIRCLE ( 'NONE', #1125, 1.650000000000000355 ) ;
#1033 = LINE ( 'NONE', #928, #631 ) ;
#1034 = ORIENTED_EDGE ( 'NONE', *, *, #418, .T. ) ;
#1035 = ADVANCED_FACE ( 'NONE', ( #124 ), #40, .T. ) ;
#1036 = APPLICATION_PROTOCOL_DEFINITION ( 'international standard', 'config_control_design', 1994, #1025 ) ;
#1037 = CARTESIAN_POINT ( 'NONE',  ( 1.650000000000000133, 12.50000000000000000, 3.000000000000000000 ) ) ;
#1038 = CIRCLE ( 'NONE', #30, 17.00000000000000000 ) ;
#1039 = CIRCLE ( 'NONE', #87, 21.99999999999999289 ) ;
#1040 = ORIENTED_EDGE ( 'NONE', *, *, #451, .F. ) ;
#1041 = CARTESIAN_POINT ( 'NONE',  ( 9.175317547305498422, 6.249999999999975131, 3.000000000000000000 ) ) ;
#1042 = EDGE_LOOP ( 'NONE', ( #956, #761 ) ) ;
#1043 = DIRECTION ( 'NONE',  ( -0.000000000000000000, -0.000000000000000000, -1.000000000000000000 ) ) ;
#1044 = CARTESIAN_POINT ( 'NONE',  ( 100.0000000000000000, 20.00000000000000000, 2.000000000000000000 ) ) ;
#1045 = ORIENTED_EDGE ( 'NONE', *, *, #877, .T. ) ;
#1046 = PERSON_AND_ORGANIZATION ( #400, #591 ) ;
#1047 = ORIENTED_EDGE ( 'NONE', *, *, #737, .T. ) ;
#1048 = CARTESIAN_POINT ( 'NONE',  ( 10.82531754730549878, 6.249999999999975131, 3.000000000000000000 ) ) ;
#1049 = EDGE_CURVE ( 'NONE', #188, #54, #375, .T. ) ;
#1050 = LINE ( 'NONE', #970, #977 ) ;
#1051 = DIRECTION ( 'NONE',  ( 0.9987365352540955588, -0.05025269294918075641, 0.000000000000000000 ) ) ;
#1052 = ORIENTED_EDGE ( 'NONE', *, *, #821, .F. ) ;
#1053 = DIRECTION ( 'NONE',  ( -0.000000000000000000, -0.000000000000000000, -1.000000000000000000 ) ) ;
#1054 = AXIS2_PLACEMENT_3D ( 'NONE', #18, #908, #724 ) ;
#1055 = CIRCLE ( 'NONE', #1112, 2.100000000000000977 ) ;
#1056 = DIRECTION ( 'NONE',  ( 0.000000000000000000, 0.000000000000000000, 1.000000000000000000 ) ) ;
#1057 = LOCAL_TIME ( 15, 12, 42.00000000000000000, #1128 ) ;
#1058 = ORIENTED_EDGE ( 'NONE', *, *, #147, .T. ) ;
#1059 = AXIS2_PLACEMENT_3D ( 'NONE', #719, #960, #702 ) ;
#1060 = EDGE_LOOP ( 'NONE', ( #94, #151 ) ) ;
#1061 = CARTESIAN_POINT ( 'NONE',  ( -6.249999999999900524, 10.82531754730554496, 3.000000000000000000 ) ) ;
#1062 = LINE ( 'NONE', #416, #78 ) ;
#1063 = ORIENTED_EDGE ( 'NONE', *, *, #579, .F. ) ;
#1064 = VERTEX_POINT ( 'NONE', #470 ) ;
#1065 = DIRECTION ( 'NONE',  ( 0.000000000000000000, 0.000000000000000000, 1.000000000000000000 ) ) ;
#1066 = LINE ( 'NONE', #535, #21 ) ;
#1067 = DIRECTION ( 'NONE',  ( -0.000000000000000000, -0.000000000000000000, 1.000000000000000000 ) ) ;
#1068 = ADVANCED_FACE ( 'NONE', ( #734, #214, #558, #383, #277, #574, #1017, #1091, #1106, #481 ), #663, .F. ) ;
#1069 = EDGE_LOOP ( 'NONE', ( #59, #750 ) ) ;
#1070 = DIRECTION ( 'NONE',  ( 0.000000000000000000, 0.000000000000000000, 1.000000000000000000 ) ) ;
#1071 = CIRCLE ( 'NONE', #568, 2.100000000000000977 ) ;
#1072 = DIRECTION ( 'NONE',  ( -0.000000000000000000, -0.000000000000000000, -1.000000000000000000 ) ) ;
#1073 = AXIS2_PLACEMENT_3D ( 'NONE', #25, #641, #270 ) ;
#1074 = DIRECTION ( 'NONE',  ( -0.9987365352540955588, -0.05025269294918076335, 0.000000000000000000 ) ) ;
#1075 = CALENDAR_DATE ( 2026, 11, 6 ) ;
#1076 = ORIENTED_EDGE ( 'NONE', *, *, #373, .T. ) ;
#1077 = LINE ( 'NONE', #521, #1134 ) ;
#1078 = AXIS2_PLACEMENT_3D ( 'NONE', #148, #1104, #596 ) ;
#1079 = VECTOR ( 'NONE', #611, 1000.000000000000000 ) ;
#1080 = ADVANCED_FACE ( 'NONE', ( #648, #840 ), #36, .T. ) ;
#1081 = CIRCLE ( 'NONE', #426, 24.99999999999999289 ) ;
#1082 = CYLINDRICAL_SURFACE ( 'NONE', #811, 2.099999999999998757 ) ;
#1083 = CARTESIAN_POINT ( 'NONE',  ( 10.82531754730545792, -6.250000000000052403, 3.000000000000000000 ) ) ;
#1084 = EDGE_LOOP ( 'NONE', ( #69, #318 ) ) ;
#1085 = DIRECTION ( 'NONE',  ( -0.000000000000000000, -0.000000000000000000, -1.000000000000000000 ) ) ;
#1086 = ADVANCED_FACE ( 'NONE', ( #907 ), #997, .F. ) ;
#1087 = LINE ( 'NONE', #279, #358 ) ;
#1088 = DIRECTION ( 'NONE',  ( 1.000000000000000000, 0.000000000000000000, 0.000000000000000000 ) ) ;
#1089 = AXIS2_PLACEMENT_3D ( 'NONE', #602, #707, #795 ) ;
#1090 = VERTEX_POINT ( 'NONE', #756 ) ;
#1091 = FACE_BOUND ( 'NONE', #499, .T. ) ;
#1092 = CYLINDRICAL_SURFACE ( 'NONE', #510, 2.100000000000000977 ) ;
#1093 = FACE_BOUND ( 'NONE', #414, .T. ) ;
#1094 = VERTEX_POINT ( 'NONE', #23 ) ;
#1095 = DIRECTION ( 'NONE',  ( -0.000000000000000000, -0.000000000000000000, -1.000000000000000000 ) ) ;
#1096 = AXIS2_PLACEMENT_3D ( 'NONE', #298, #159, #871 ) ;
#1097 = DIRECTION ( 'NONE',  ( -1.000000000000000000, 0.000000000000000000, 0.000000000000000000 ) ) ;
#1098 = VECTOR ( 'NONE', #1051, 1000.000000000000114 ) ;
#1099 = CARTESIAN_POINT ( 'NONE',  ( 0.000000000000000000, 0.000000000000000000, 2.000000000000000000 ) ) ;
#1100 = EDGE_LOOP ( 'NONE', ( #250, #446, #954, #524, #1118 ) ) ;
#1101 = EDGE_CURVE ( 'NONE', #878, #360, #394, .T. ) ;
#1102 = DIRECTION ( 'NONE',  ( 0.000000000000000000, 0.000000000000000000, -1.000000000000000000 ) ) ;
#1103 = DIRECTION ( 'NONE',  ( 0.000000000000000000, 0.000000000000000000, 1.000000000000000000 ) ) ;
#1104 = DIRECTION ( 'NONE',  ( 0.000000000000000000, 0.000000000000000000, 1.000000000000000000 ) ) ;
#1105 = ORIENTED_EDGE ( 'NONE', *, *, #919, .T. ) ;
#1106 = FACE_BOUND ( 'NONE', #1060, .T. ) ;
#1107 = CARTESIAN_POINT ( 'NONE',  ( 0.000000000000000000, 12.50000000000000000, 3.000000000000000000 ) ) ;
#1108 = DIRECTION ( 'NONE',  ( 0.000000000000000000, 0.000000000000000000, 1.000000000000000000 ) ) ;
#1109 = CIRCLE ( 'NONE', #1054, 1.650000000000000355 ) ;
#1110 = ORIENTED_EDGE ( 'NONE', *, *, #297, .F. ) ;
#1111 = PERSON_AND_ORGANIZATION ( #400, #591 ) ;
#1112 = AXIS2_PLACEMENT_3D ( 'NONE', #97, #370, #738 ) ;
#1113 = ORIENTED_EDGE ( 'NONE', *, *, #855, .F. ) ;
#1114 = CC_DESIGN_APPROVAL ( #355, ( #896 ) ) ;
#1115 = ADVANCED_FACE ( 'NONE', ( #552 ), #751, .F. ) ;
#1116 = CYLINDRICAL_SURFACE ( 'NONE', #422, 1.650000000000000355 ) ;
#1117 = EDGE_LOOP ( 'NONE', ( #599, #850, #1113, #962 ) ) ;
#1118 = ORIENTED_EDGE ( 'NONE', *, *, #451, .T. ) ;
#1119 = EDGE_CURVE ( 'NONE', #266, #1028, #912, .T. ) ;
#1120 = FACE_OUTER_BOUND ( 'NONE', #371, .T. ) ;
#1121 = ORIENTED_EDGE ( 'NONE', *, *, #5, .T. ) ;
#1122 =( NAMED_UNIT ( * ) SI_UNIT ( $, .STERADIAN. ) SOLID_ANGLE_UNIT ( ) );
#1123 = ORIENTED_EDGE ( 'NONE', *, *, #500, .F. ) ;
#1124 = CIRCLE ( 'NONE', #881, 1.650000000000000355 ) ;
#1125 = AXIS2_PLACEMENT_3D ( 'NONE', #71, #1056, #799 ) ;
#1126 = DIRECTION ( 'NONE',  ( 0.000000000000000000, 0.000000000000000000, 1.000000000000000000 ) ) ;
#1127 = ORIENTED_EDGE ( 'NONE', *, *, #614, .F. ) ;
#1128 = COORDINATED_UNIVERSAL_TIME_OFFSET ( 8, 0, .AHEAD. ) ;
#1129 = ADVANCED_FACE ( 'NONE', ( #825 ), #379, .F. ) ;
#1130 = ORIENTED_EDGE ( 'NONE', *, *, #1138, .T. ) ;
#1131 = CARTESIAN_POINT ( 'NONE',  ( 0.000000000000000000, 0.000000000000000000, 3.000000000000000000 ) ) ;
#1132 = FACE_OUTER_BOUND ( 'NONE', #309, .T. ) ;
#1133 = CIRCLE ( 'NONE', #482, 1.650000000000000355 ) ;
#1134 = VECTOR ( 'NONE', #629, 1000.000000000000000 ) ;
#1135 = AXIS2_PLACEMENT_3D ( 'NONE', #665, #386, #600 ) ;
#1136 = VERTEX_POINT ( 'NONE', #202 ) ;
#1137 = DIRECTION ( 'NONE',  ( -0.000000000000000000, -0.000000000000000000, -1.000000000000000000 ) ) ;
#1138 = EDGE_CURVE ( 'NONE', #551, #1010, #562, .T. ) ;
#1139 = ORIENTED_EDGE ( 'NONE', *, *, #528, .F. ) ;
#1140 = DIRECTION ( 'NONE',  ( 0.000000000000000000, 0.000000000000000000, 1.000000000000000000 ) ) ;
#1141 = LINE ( 'NONE', #789, #116 ) ;
#1142 = VERTEX_POINT ( 'NONE', #942 ) ;
#1143 = VERTEX_POINT ( 'NONE', #853 ) ;
#1144 = CYLINDRICAL_SURFACE ( 'NONE', #948, 17.00000000000000000 ) ;
#1145 = CARTESIAN_POINT ( 'NONE',  ( -1.650000000000087619, -12.50000000000000000, 3.000000000000000000 ) ) ;
#1146 = CARTESIAN_POINT ( 'NONE',  ( 12.50000000000000000, 0.000000000000000000, 0.000000000000000000 ) ) ;
#1147 = VERTEX_POINT ( 'NONE', #60 ) ;
#1148 = DIRECTION ( 'NONE',  ( 0.000000000000000000, 0.000000000000000000, 1.000000000000000000 ) ) ;
#1149 = EDGE_CURVE ( 'NONE', #169, #824, #157, .T. ) ;
#1150 = LINE ( 'NONE', #344, #585 ) ;
#1151 = EDGE_LOOP ( 'NONE', ( #678, #106, #685, #134 ) ) ;
#1152 = CIRCLE ( 'NONE', #651, 20.00000000000000355 ) ;
#1153 = ORIENTED_EDGE ( 'NONE', *, *, #351, .F. ) ;
#1154 = DIRECTION ( 'NONE',  ( -0.000000000000000000, -0.000000000000000000, -1.000000000000000000 ) ) ;
#1155 = LINE ( 'NONE', #1145, #883 ) ;
#1156 = ADVANCED_FACE ( 'NONE', ( #766 ), #51, .F. ) ;
#1157 = CARTESIAN_POINT ( 'NONE',  ( -8.728703347107833388E-14, -12.50000000000000000, 0.000000000000000000 ) ) ;
#1158 = VERTEX_POINT ( 'NONE', #598 ) ;
ENDSEC;
END-ISO-10303-21;
